<svg width="125" height="38" viewBox="0 0 125 38" xmlns="http://www.w3.org/2000/svg"><title>Logo color</title><g fill="none" fill-rule="evenodd"><path d="M-370-19h1920v75H-370z" fill="#FFF"/><path d="M49.114 24.304l-.159 6.312-.118-6.36.277.048zM48.936 37.2l-2.424.43-.059-.295 2.483-.135zm-2.325-6.223l-.934-6.222.399-.158.535 6.38zm-3.755 2.469l-.238-1.224.398-3.576-.16 4.8zm.238-9.348L46.91 33.4l-.497-8.85 2.007-.246.436 12.626-2.483.135-3.536-9.685-.438 4.886.556 5.16-2.303-.067.178-5.137-.376-7.918 2.64-.206zm-2.501 8.463l-.16 4.706-.358.115.518-4.821zm18.137 4.685l.08.316-2.184-.202 2.105-.114zm-4.052-5.635l-.198-3.53.477 3.802-.279-.272zm-1.808 1.267l2.782-.34-.4-.452-.614-4.592-.714.294-1.054 5.09zm2.98 2.217l-3.14.838-.059-.566 3.2-.272zm-4.61-3.915l1.113-7.148.358.203-1.47 6.945zm2.464-6.787l1.828-.34L58.63 37.02l-1.986.111-.28-2.375-3.852.384-.138-.656-.737 2.897-2.125-.203 1.847-5.567 1.59-7.42.754.202zm11.92 2.399l-.217.543-2.108-.725 2.325.182zm-1.947 9.91l-.357.182-.338-5.453.695 5.272zm-2.94-5.315l-.696-3.532.417-.317.278 3.849zm-2.721-8.034l3.913.745-3.933-.223.02-.522zm4.151.996l3.776-.34-.22 2.466-2.76-.112-.22 5.068.358 5.59h-2.384l.377-5.41-.397-4.39.933-.655-3.853-.09.179-2.285 4.211.158zm12.795 11.108l-.476.295.914-2.105-.438 1.81zM72.935 23.42l2.286.409-2.286.067v-.476zm-.158 10.343l-.953 1.288-.38-.067 1.333-1.22zm-3.02-.115l-.338-.407.239-8.756.1 9.163zm-.755 3.304l-1.332-1.447-.099-.52 1.431 1.967zm.377-12.76l-.218 9.184 1.192 1.675 1.549.249 1.153-1.449-.12-9.594 2.346-.044v9.076l-1.013 2.51-2.304 1.514-2.704-.405-1.729-2.4-.099-2.645-.337-7.808 2.284.137zm15.536 2.126l-.038 2.69-.34-2.986.378.296zm-1.31 6.107l-.418-.36 1.59-2.082-1.172 2.442zm-1.29-3.392l-.478.45.477-2.284v1.834zm-1.69 3.574l-.677.634-.318-.544.995-.09zm-.875-5.408l-.317 2.602-.1-2.782.417.18zm-.714-.317l.098 3.326 2.445-.043 1.012-.974-.04-2.06-.993-.813-3.178.203.656.36zm.098-2.533l3.198.066 1.927 1.54.417 3.687-1.648 2.24-.696-.566 1.273 3.44 1.43 2.31-2.265.315-.754-2.171-1.232-2.873h-1.351l-.437-.682.058 5.365-2.224.247.397-6.402-.258-6.314 2.165-.202zm-.039 12.94l.08.41-2.404-.226 2.324-.183zm-2.086-6.786l-.716-5.93.299-.044.417 5.974zm16.053-2.059l-.318-.34.397-2.511-.08 2.85zm.377 6.539l.078.521-1.112 1.222 1.034-1.743zm-4.75-8.145l.439-.159-.28 1.333-.158-1.174zm1.293 4.977l.356.61-2.94-1.469 2.584.859zm-2.842 1.742l1.55.997-1.768-.521.218-.476zm5.424-5.725l-.894-1.019-2.224-.542-1.013.497.139 1.38 2.84 2.017 1.77 1.763.217 2.715-1.37 2.083-2.981.541-2.82-.813.616-2.217 1.907.7 1.906.204.834-1.56-1.37-2.016-2.94-1.018-.953-2.805 1.368-3.145 2.922-.657 2.425 1.425-.379 2.467zm-5.74-2.896l.475-.158-1.27 2.602.795-2.444zm15.673 1.856l-.217.543-2.105-.725 2.322.182zm-1.946 9.91l-.358.182-.337-5.453.695 5.272zm-2.94-5.315l-.695-3.532.418-.317.277 3.849zm-2.722-8.034l3.914.745-3.935-.223.02-.522zm4.15.996l3.776-.34-.217 2.466-2.762-.112-.218 5.068.358 5.59h-2.383l.376-5.41-.398-4.39.933-.655-3.853-.09.179-2.285 4.21.158zm10.313 4.977l-.037 1.539-.341-1.56.378.021zm.537-2.4l-2.92.342-.258-.342h3.178zm-3.358 4.89l.438 2.148-.438.361v-2.51zm3.815-7.512l.258 2.306-4.073.07-.318-.455-.297 3.17 2.78-.09.436 2.306-2.958-.203.139 3.1-.574.452 1.904.09 2.86-.113.1 2.128-3.238-.136-3.178.383.3-6.403-.321-6.653 6.18.048zm-6.418 12.69l-.139-5.474.377-.564-.238 6.039zm11.106-12.374l-.556 5.159.12-5.182.436.022zm-.298 12.216l.1.295-1.947-.022 1.847-.273zm-.38-12.285l-.216 5.544.577 6.517-2.703.52.338-6.132-.358-6.607 2.363.158zm-2.54 12.356l-.258-.204.556-5.475-.298 5.68zm12.816-12.603l-.161 6.312-.118-6.36.279.048zm-.18 12.896l-2.424.43-.06-.295 2.484-.135zm-2.325-6.223l-.934-6.222.398-.158.536 6.38zm-3.755 2.469l-.239-1.224.398-3.576-.16 4.8zm.238-9.348l3.817 9.302-.498-8.85 2.007-.246.437 12.626-2.485.135-3.536-9.685-.437 4.886.556 5.16-2.305-.067.18-5.137-.377-7.918 2.641-.206zm-2.502 8.463l-.159 4.706-.36.115.519-4.821zM22.722 30.08c-.147-.068-.39-.119-2.18-.119-.453 0-.95.004-1.462.01-.537 0-1.088.004-1.616.004-.632 0-2.561 0-2.934-.117-.443-.137-1.146.017-1.897.198-.82.197-1.722.358-1.938.13-.247-.262-.822-.531-3.203-.531-1.5 0-3.187.11-4.092.167l-.5.032c-1.17.063-1.791.446-1.816.462l-.166.103-.164 5.647L4 36.874l.081-.018c.019-.004 1.824-.385 2.8-.385.203 0 .309.017.36.029.201.356.76.407 1.289.407.605 0 1.336-.083 1.774-.133.152-.017.273-.032.341-.037.222-.018 1.65.041 2.995.09 1.265.045 2.458.09 2.905.09.075 0 .13 0 .196-.005.412 0 1.8.276 2.302.38l.054.013 5.554-.52.15-5.211-.143-.113c-.148-.118-1.464-1.16-1.937-1.38m13.591 1.256l-1.607-.994-.11.004c-.24.006-5.923.164-7.109.312-1.126.14-1.37.43-1.485 1.024l-.027.126c-.108.466-.152 4.52-.161 5.329l-.004.397.397-.03c.004 0 .554-.041 1.106-.041.68 0 .862.061.894.075.466.2 5.444.237 7.564.244h.113l.093-.063c1.15-.786.426-3.19.257-3.693l.079-2.69zm-3.339-7.171c-.528-.071-1.307.053-2.055.174-.542.089-1.102.183-1.505.183-.369 0-.44-.075-.44-.075-.141-.157-.432-.478-3.053-.478-1.5 0-3.17.11-3.798.188-.667.085-2.69-.026-4.396-.116-1.293-.068-2.355-.12-2.671-.092-1.011.099-2.156.284-2.982.894-.97.718-.37 3.46-.242 4.002l.062.255.259.02c.084.007 2.039.168 3.176.168.551 0 .73-.039.832-.075.237-.09 2.357-.525 4.231-.525.956 0 1.69.117 2.118.34.618.316 1.625.475 2.999.475 1.725 0 3.416-.247 3.425-.252l6.83.196c.997 0 1.112-1.715 1.141-3.321.02-.954-1.267-1.594-3.93-1.96M1.303 28.894c.023.007.088.056.136.09.214.156.537.39 1.16.39.178 0 .371-.02.578-.06 1.14-.21 2.22-.338 2.889-.338.374 0 .545.038.615.062.438.147 1.7.326 2.611.326.59 0 1.152-.06 1.254-.48.327-1.249.973-4.209-.082-4.67-.124-.053-.253-.115-.39-.18-.693-.327-1.553-.734-2.591-.734-.302 0-.602.036-.9.107-.344.079-.81.121-1.386.121-1.425 0-3.024-.257-3.04-.26l-.331-.054-.077.328c-.051.21-.249.815-.564 1.114-.58.557-.539 3.228-.312 3.852.116.323.325.383.43.386m.382-6.474l.28.135c.238.116.724.25 2.392.25.678 0 1.39-.02 1.969-.038.39-.012.721-.022.938-.022l.12.001c.205.005.73.061 1.336.126 1.225.128 2.902.307 3.992.307.485 0 .808-.034 1.013-.112.078-.028.283-.074.767-.074 1.294 0 3.361.333 3.383.337l.05.009 1.897-.25.078-.068c.13-.11 1.255-1.097 1.284-2.138.02-.673.02-.673.55-1.117l.15-.126c.448-.377.705-.881.724-1.418.02-.536-.207-1.062-.638-1.482a1.175 1.175 0 0 1-.258-.347c-.255-.504-.397-.51-2.779-.649-1.582-.093-2.707-.102-3.794-.112-1.079-.011-2.197-.02-3.76-.111-1.002-.058-1.811-.126-2.48-.18-1.536-.13-2.326-.178-2.986.01-.363.101-.653.034-1.007-.069-.37-.11-.807-.239-1.451-.163-.308.038-.566.02-.787.007-.112-.005-.214-.013-.31-.013-.686 0-1.004.35-1.136 1.248-.067.466-.204 1.02-.351 1.61-.27 1.084-.551 2.208-.4 2.933.207 1.001.559 1.208 1.214 1.515m35.605-8.461c-.222-.716-.525-1.694-1.63-1.726-.391-.012-.647-.04-.897-.067-.485-.054-.973-.108-2.37-.026-1.25.071-1.937-.16-2.528-.36-.346-.116-.672-.226-1.035-.242l-.389-.018a58.492 58.492 0 0 0-2.77-.087c-1.874 0-2.18.193-2.334.39-.386.497-1.132 2.253.278 7.856.105.418.085.895.062 1.356-.031.724-.064 1.475.422 1.984.345.36.894.537 1.718.537l.641-.015c.77-.017 2.057-.048 3.333-.048 2.967 0 3.518.167 3.617.222l.15.11.18-.064c.62-.218 2.649-1.005 2.676-1.993.007-.248.211-1.12.425-2.047.721-3.096.993-4.566.704-5.081-.098-.176-.173-.423-.253-.681M17.083 5.27c.038.478.069.887.276 1.34.11.238.212.62.321 1.028.227.842.441 1.639.881 1.954.407.293 1.758 1.007 2.415 1.007.138 0 .255-.03.348-.086.08-.01.306-.03.936-.03 3.249 0 12.757.466 12.854.47l.1.003c.637 0 1.188-.284 1.634-.845 1.5-1.884 1.372-6.447 1.166-7.407-.232-1.067-1.517-1.086-3.146-1.113-.774-.013-1.649-.026-2.56-.143-1.954-.25-2.994-.193-4.574-.05-.48.044-1.024.093-1.688.139-1.47.1-2.096.277-2.511.396-.359.102-.497.131-.912.049a32.891 32.891 0 0 1-.985-.213c-.922-.204-1.875-.417-2.609-.44-.703 0-1.422.336-1.828.855-.355.455-.468 1.016-.324 1.627a8.65 8.65 0 0 1 .206 1.46M1.635 11.738c.154.894.245 1.432 1.315 2.048 1.238.712 3.095.768 4.588.808.296.008.75.032 1.297.062 1.208.06 2.861.148 4.213.148 1.639 0 2.13-.129 2.359-.225.539-.225.531-1.067.518-2.34-.008-.677-.015-1.447.076-2.105.18-1.327.167-1.641.131-2.474a42.264 42.264 0 0 1-.034-.901c-.014-.52.036-1.129.082-1.717.116-1.436.206-2.574-.488-2.871l-.302-.133c-.887-.39-2.73-1.207-3.86-1.302l-.426-.04c-.821-.07-1.75-.154-2.893-.154-.527 0-1.04.017-1.57.053C5.847.65 5.188.61 4.643.578c-.291-.018-.55-.034-.78-.034-.45 0-.959.05-1.352.421-.87.82-1.291 8.768-1.02 10.007.066.296.109.546.145.766" fill="#C5B49F"/><path d="M43.619 14.272c.238.015.47.015.707.027a67.25 67.25 0 0 0 2.318.124l.738-2.23c.418-1.29.78-2.508 1.085-3.657a39.2 39.2 0 0 0 .752-3.403 50.369 50.369 0 0 0 1.565 6.48l.883 2.733c1.341-.042 2.669-.11 3.983-.203L50.972 1.506h-3.38l-4.776 12.71c.26.023.526.042.803.056m8.964 2.9l.998 3h4.3l-1.064-2.874a78.398 78.398 0 0 1-4.234-.126M42.21 15.827l-1.632 4.345h4.174l1.232-3.639h.257a69.627 69.627 0 0 1-4.03-.706m71.877-3.287l.114-.347c.418-1.29.779-2.508 1.086-3.657a39.18 39.18 0 0 0 .75-3.403 50.452 50.452 0 0 0 1.566 6.48l.884 2.637c1.238.453 3.603 1.785 4.901 2.626l-5.597-15.37h-3.381l-3.685 9.81c.261.02 2.603.855 3.362 1.223m5.097 3.932l1.216 3.7h4.3l-.755-1.769c-1.242-.616-3.157-1.39-4.761-1.93m-9.323-2.622l-2.464 6.322h4.175l1.727-5.17s-2.093-.874-3.438-1.152m-9.899-1.08v7.402h4.342v-7.06a56.322 56.322 0 0 0-4.342-.342m4.342-2.936V1.506h-4.342v7.738c1.452.14 2.9.335 4.342.59m-20.15-.142a66.17 66.17 0 0 1 1.593-.215V3.574h.731c.682 0 1.27.06 1.763.18.494.122.898.311 1.21.57.314.257.543.591.69 1.002.146.412.22.907.22 1.487 0 1.072-.349 1.834-1.045 2.286l-.06.036a63.618 63.618 0 0 1 4.659-.16c.454-.715.682-1.584.682-2.608 0-1.741-.73-3.036-2.192-3.881-1.155-.653-2.915-.98-5.28-.98h-5.72v8.629c.909-.158 1.822-.307 2.75-.443m3.167 3.776l4.332 6.704h4.404l-4.692-7.187a71.478 71.478 0 0 0-4.044.483m-2.528.414c-1.133.204-2.26.414-3.388.625v5.665h4.341v-6.455a76.3 76.3 0 0 0-.953.165m-19.482-.811V3.622h.542c2.338 0 3.945.54 4.822 1.62.877 1.08 1.315 3.058 1.315 5.936 0 .237-.005.465-.012.689 1.523-.304 3.038-.616 4.562-.92-.011-2.174-.268-3.851-.772-5.028-.516-1.241-1.378-2.248-2.588-3.022-.807-.516-1.726-.875-2.756-1.077-1.113-.209-2.484-.314-4.112-.314h-5.343v12.155c1.462-.17 2.91-.367 4.342-.59m5.591 3.165c-.09.126-.186.242-.29.345-.89.928-2.657 1.39-5.3 1.39v-1.064c-1.441.13-2.89.227-4.343.287v2.978h3.507c4.062 0 6.88-.407 8.454-1.22 1.28-.653 2.197-1.6 2.755-2.842a7.92 7.92 0 0 0 .263-.7c-1.666.297-3.345.577-5.046.826" fill="#213F9A"/></g></svg>