<svg width="258" height="83" viewBox="0 0 258 83" xmlns="http://www.w3.org/2000/svg" xmlns:xlink="http://www.w3.org/1999/xlink"><title>Logo White</title><defs><path d="M101.621 51.933l-.318 12.709-.237-12.806.555.097zm-.358 25.966l-4.867.865-.118-.594 4.985-.271zm-4.667-12.53L94.72 52.842l.8-.319 1.076 12.846zm-7.541 4.97l-.478-2.463.799-7.2-.321 9.663zm.478-18.82l7.663 18.727-.999-17.815 4.03-.498.876 25.42-4.986.274-7.1-19.5-.88 9.837 1.117 10.389-4.626-.134.359-10.343-.756-15.943 5.302-.414zm-5.022 17.04l-.32 9.474-.72.23 1.04-9.705z" id="b"/><filter x="-50%" y="-50%" width="200%" height="200%" filterUnits="objectBoundingBox" id="a"><feOffset in="SourceAlpha" result="shadowOffsetOuter1"/><feGaussianBlur stdDeviation="2" in="shadowOffsetOuter1" result="shadowBlurOuter1"/><feColorMatrix values="0 0 0 0 0 0 0 0 0 0 0 0 0 0 0 0 0 0 0.5 0" in="shadowBlurOuter1"/></filter><path d="M120.931 77.99l.16.637-4.387-.408 4.227-.23zm-8.137-11.345l-.398-7.106.957 7.654-.56-.548zm-3.632 2.551l5.588-.682-.802-.911-1.235-9.246-1.433.592-2.118 10.247zm5.985 4.464l-6.304 1.687-.12-1.14 6.424-.547zm-9.256-7.882l2.234-14.391.718.407-2.952 13.984zm4.946-13.666l3.671-.682 6.223 26.107-3.987.223-.562-4.782-7.735.773-.279-1.321-1.479 5.833-4.268-.41 3.71-11.208 3.192-14.939 1.514.406z" id="d"/><filter x="-50%" y="-50%" width="200%" height="200%" filterUnits="objectBoundingBox" id="c"><feOffset in="SourceAlpha" result="shadowOffsetOuter1"/><feGaussianBlur stdDeviation="2" in="shadowOffsetOuter1" result="shadowBlurOuter1"/><feColorMatrix values="0 0 0 0 0 0 0 0 0 0 0 0 0 0 0 0 0 0 0.5 0" in="shadowBlurOuter1"/></filter><path d="M134.774 56.943l-.438 1.094-4.231-1.46 4.669.366zm-3.91 19.954l-.717.365-.679-10.98 1.395 10.615zm-5.905-10.703l-1.396-7.11.837-.64.559 7.75zm-5.463-16.176l7.858 1.501-7.899-.45.04-1.051zm8.336 2.007l7.58-.685-.438 4.965-5.546-.227-.439 10.205.717 11.254h-4.785l.756-10.892-.797-8.838 1.874-1.319-7.738-.183.36-4.599 8.456.319z" id="f"/><filter x="-50%" y="-50%" width="200%" height="200%" filterUnits="objectBoundingBox" id="e"><feOffset in="SourceAlpha" result="shadowOffsetOuter1"/><feGaussianBlur stdDeviation="2" in="shadowOffsetOuter1" result="shadowBlurOuter1"/><feColorMatrix values="0 0 0 0 0 0 0 0 0 0 0 0 0 0 0 0 0 0 0.5 0" in="shadowBlurOuter1"/></filter><path d="M153.524 74.39l-.956.593 1.835-4.238-.88 3.644zm-4.07-24.237l4.59.821-4.59.136v-.957zm-.318 20.823l-1.914 2.594-.76-.135 2.674-2.459zm-6.064-.23l-.68-.82.481-17.63.2 18.45zm-1.516 6.651l-2.674-2.914-.199-1.048 2.873 3.962zm.758-25.69l-.44 18.49 2.394 3.373 3.11.5 2.317-2.916-.241-19.318 4.71-.088v18.273l-2.034 5.055-4.627 3.048-5.429-.815-3.471-4.833-.199-5.325-.677-15.721 4.587.276z" id="h"/><filter x="-50%" y="-50%" width="200%" height="200%" filterUnits="objectBoundingBox" id="g"><feOffset in="SourceAlpha" result="shadowOffsetOuter1"/><feGaussianBlur stdDeviation="2" in="shadowOffsetOuter1" result="shadowBlurOuter1"/><feColorMatrix values="0 0 0 0 0 0 0 0 0 0 0 0 0 0 0 0 0 0 0.5 0" in="shadowBlurOuter1"/></filter><path d="M173.51 55.988l-.077 5.418-.681-6.014.758.596zm-2.631 12.297l-.84-.727 3.192-4.19-2.352 4.917zm-2.592-6.83l-.958.908.958-4.6v3.692zm-3.391 7.196l-1.36 1.276-.638-1.094 1.998-.182zm-1.757-10.888L162.5 63l-.2-5.6.839.362zm-1.434-.64l.196 6.698 4.91-.088 2.032-1.96-.08-4.149-1.994-1.636-6.382.41 1.318.726zm.196-5.099l6.42.132 3.871 3.1.838 7.425-3.309 4.512-1.4-1.14 2.558 6.924 2.871 4.65-4.548.637-1.515-4.373-2.473-5.785H162.5l-.876-1.372.117 10.802-4.466.497.796-12.89-.517-12.713 4.347-.406zm-.078 26.055l.162.823-4.83-.454 4.668-.37zm-4.19-13.665l-1.436-11.938.599-.09.837 12.028z" id="j"/><filter x="-50%" y="-50%" width="200%" height="200%" filterUnits="objectBoundingBox" id="i"><feOffset in="SourceAlpha" result="shadowOffsetOuter1"/><feGaussianBlur stdDeviation="2" in="shadowOffsetOuter1" result="shadowBlurOuter1"/><feColorMatrix values="0 0 0 0 0 0 0 0 0 0 0 0 0 0 0 0 0 0 0.5 0" in="shadowBlurOuter1"/></filter><path d="M189.868 60.268l-.638-.683.796-5.057-.158 5.74zm.758 13.166l.155 1.05-2.232 2.459 2.077-3.509zm-9.537-16.4l.88-.318-.561 2.684-.319-2.365zm2.595 10.022l.716 1.229-5.903-2.958 5.187 1.729zm-5.708 3.507l3.113 2.009-3.55-1.05.437-.96zm10.893-11.527l-1.795-2.05-4.467-1.092-2.034 1.001.28 2.779 5.701 4.06 3.554 3.549.438 5.468-2.753 4.192-5.985 1.09-5.663-1.636 1.237-4.465 3.83 1.41 3.828.41 1.674-3.142-2.752-4.056-5.904-2.05-1.913-5.648 2.748-6.332 5.867-1.323 4.869 2.868-.76 4.967zm-11.526-5.83l.953-.318-2.55 5.239 1.597-4.921z" id="l"/><filter x="-50%" y="-50%" width="200%" height="200%" filterUnits="objectBoundingBox" id="k"><feOffset in="SourceAlpha" result="shadowOffsetOuter1"/><feGaussianBlur stdDeviation="2" in="shadowOffsetOuter1" result="shadowBlurOuter1"/><feColorMatrix values="0 0 0 0 0 0 0 0 0 0 0 0 0 0 0 0 0 0 0.5 0" in="shadowBlurOuter1"/></filter><path d="M208.813 56.943l-.434 1.094-4.228-1.46 4.662.366zm-3.906 19.954l-.719.365-.678-10.98 1.397 10.615zm-5.904-10.703l-1.397-7.11.84-.64.557 7.75zm-5.466-16.176l7.858 1.501-7.9-.45.042-1.051zm8.335 2.007l7.58-.685-.436 4.965-5.546-.227-.438 10.205.719 11.254h-4.785l.755-10.892-.8-8.838 1.875-1.319-7.736-.183.358-4.599 8.454.319z" id="n"/><filter x="-50%" y="-50%" width="200%" height="200%" filterUnits="objectBoundingBox" id="m"><feOffset in="SourceAlpha" result="shadowOffsetOuter1"/><feGaussianBlur stdDeviation="2" in="shadowOffsetOuter1" result="shadowBlurOuter1"/><feColorMatrix values="0 0 0 0 0 0 0 0 0 0 0 0 0 0 0 0 0 0 0.5 0" in="shadowBlurOuter1"/></filter><path d="M222.58 62.045l-.076 3.098-.685-3.14.76.042zm1.077-4.832l-5.864.688-.518-.688h6.382zm-6.744 9.844l.88 4.325-.88.728v-5.053zm7.66-15.124l.52 4.644-8.18.139-.637-.914-.597 6.38 5.583-.18.875 4.643-5.94-.408.28 6.24-1.154.911 3.824.182 5.745-.229.2 4.286-6.502-.274-6.382.77.6-12.89-.643-13.397 12.409.097zm-12.886 25.552l-.278-11.024.756-1.135-.478 12.159z" id="p"/><filter x="-50%" y="-50%" width="200%" height="200%" filterUnits="objectBoundingBox" id="o"><feOffset in="SourceAlpha" result="shadowOffsetOuter1"/><feGaussianBlur stdDeviation="2" in="shadowOffsetOuter1" result="shadowBlurOuter1"/><feColorMatrix values="0 0 0 0 0 0 0 0 0 0 0 0 0 0 0 0 0 0 0.5 0" in="shadowBlurOuter1"/></filter><path d="M233.989 52.569l-1.117 10.387.24-10.432.877.045zm-.598 24.597l.198.594-3.909-.045 3.71-.55zm-.763-24.735l-.434 11.163 1.159 13.12-5.43 1.046.68-12.345-.719-13.302 4.744.318zm-5.101 24.878l-.518-.412 1.116-11.023-.598 11.435z" id="r"/><filter x="-50%" y="-50%" width="200%" height="200%" filterUnits="objectBoundingBox" id="q"><feOffset in="SourceAlpha" result="shadowOffsetOuter1"/><feGaussianBlur stdDeviation="2" in="shadowOffsetOuter1" result="shadowBlurOuter1"/><feColorMatrix values="0 0 0 0 0 0 0 0 0 0 0 0 0 0 0 0 0 0 0.5 0" in="shadowBlurOuter1"/></filter><path d="M253.26 51.933l-.323 12.709-.235-12.806.558.097zm-.361 25.966l-4.867.865-.119-.594 4.986-.271zm-4.667-12.53l-1.877-12.527.8-.319 1.077 12.846zm-7.541 4.97l-.48-2.463.8-7.2-.32 9.663zm.479-18.82l7.664 18.727-1-17.815 4.03-.498.877 25.42-4.989.274-7.101-19.5-.877 9.837 1.117 10.389-4.63-.134.363-10.343-.758-15.943 5.304-.414zm-5.025 17.04l-.319 9.474-.723.23 1.042-9.705z" id="t"/><filter x="-50%" y="-50%" width="200%" height="200%" filterUnits="objectBoundingBox" id="s"><feOffset in="SourceAlpha" result="shadowOffsetOuter1"/><feGaussianBlur stdDeviation="2" in="shadowOffsetOuter1" result="shadowBlurOuter1"/><feColorMatrix values="0 0 0 0 0 0 0 0 0 0 0 0 0 0 0 0 0 0 0.5 0" in="shadowBlurOuter1"/></filter><path d="M45.626 59.737c-.296-.137-.782-.24-4.378-.24-.909 0-1.908.009-2.935.019-1.08 0-2.185.008-3.246.008-1.27 0-5.142 0-5.891-.234-.89-.276-2.3.034-3.809.398-1.645.396-3.458.72-3.89.264-.497-.53-1.653-1.072-6.434-1.072-3.013 0-6.4.22-8.215.336l-1.004.065c-2.35.126-3.598.898-3.647.93l-.333.209-.33 11.369 6.52 1.626.164-.036c.037-.007 3.66-.776 5.62-.776.408 0 .621.035.724.059.404.717 1.526.82 2.588.82 1.216 0 2.684-.168 3.563-.268.306-.034.547-.064.684-.074.447-.036 3.313.082 6.015.179 2.54.093 4.934.184 5.832.184.15 0 .262-.003.394-.01.828 0 3.616.554 4.623.765l.107.024 11.153-1.047.301-10.49-.286-.228c-.298-.238-2.941-2.337-3.89-2.78" id="v"/><filter x="-50%" y="-50%" width="200%" height="200%" filterUnits="objectBoundingBox" id="u"><feOffset in="SourceAlpha" result="shadowOffsetOuter1"/><feGaussianBlur stdDeviation="2" in="shadowOffsetOuter1" result="shadowBlurOuter1"/><feColorMatrix values="0 0 0 0 0 0 0 0 0 0 0 0 0 0 0 0 0 0 0.5 0" in="shadowBlurOuter1"/></filter><path d="M72.914 62.266l-3.227-2-.219.008c-.482.013-11.894.331-14.275.627-2.262.282-2.751.866-2.984 2.062l-.053.255c-.217.938-.305 9.1-.324 10.729l-.008.8.797-.063c.008 0 1.114-.08 2.222-.08 1.367 0 1.73.123 1.794.15.937.404 10.932.478 15.19.492h.225l.187-.128c2.31-1.582.855-6.421.517-7.435l.158-5.417z" id="x"/><filter x="-50%" y="-50%" width="200%" height="200%" filterUnits="objectBoundingBox" id="w"><feOffset in="SourceAlpha" result="shadowOffsetOuter1"/><feGaussianBlur stdDeviation="2" in="shadowOffsetOuter1" result="shadowBlurOuter1"/><feColorMatrix values="0 0 0 0 0 0 0 0 0 0 0 0 0 0 0 0 0 0 0.5 0" in="shadowBlurOuter1"/></filter><path d="M66.21 47.83c-1.06-.144-2.625.105-4.127.35-1.088.178-2.212.367-3.023.367-.739 0-.881-.15-.881-.15-.285-.315-.868-.964-6.132-.964-3.012 0-6.364.222-7.626.38-1.34.17-5.402-.053-8.827-.233-2.596-.138-4.728-.244-5.364-.186-2.03.2-4.329.572-5.987 1.8-1.95 1.445-.744 6.965-.487 8.058l.124.512.521.043c.17.012 4.094.336 6.377.336 1.108 0 1.465-.077 1.672-.15.476-.181 4.732-1.058 8.496-1.058 1.919 0 3.391.237 4.252.683 1.24.638 3.264.959 6.022.959 3.463 0 6.86-.497 6.878-.508l13.712.394c2.004 0 2.235-3.452 2.294-6.686.039-1.92-2.545-3.209-7.893-3.947" id="z"/><filter x="-50%" y="-50%" width="200%" height="200%" filterUnits="objectBoundingBox" id="y"><feOffset in="SourceAlpha" result="shadowOffsetOuter1"/><feGaussianBlur stdDeviation="2" in="shadowOffsetOuter1" result="shadowBlurOuter1"/><feColorMatrix values="0 0 0 0 0 0 0 0 0 0 0 0 0 0 0 0 0 0 0.5 0" in="shadowBlurOuter1"/></filter><path d="M2.617 57.348c.046.014.177.114.272.18.43.315 1.079.787 2.331.787a6.35 6.35 0 0 0 1.16-.12c2.288-.424 4.457-.68 5.8-.68.752 0 1.095.076 1.236.123.88.296 3.414.657 5.242.657 1.185 0 2.313-.12 2.519-.965.656-2.516 1.952-8.476-.166-9.402-.247-.11-.508-.234-.782-.363-1.393-.66-3.118-1.479-5.204-1.479a7.74 7.74 0 0 0-1.806.215c-.692.158-1.628.244-2.784.244-2.86 0-6.071-.517-6.103-.523l-.666-.109-.155.66c-.102.421-.499 1.642-1.131 2.242-1.166 1.121-1.082 6.5-.627 7.756.233.65.653.772.864.777" id="B"/><filter x="-50%" y="-50%" width="200%" height="200%" filterUnits="objectBoundingBox" id="A"><feOffset in="SourceAlpha" result="shadowOffsetOuter1"/><feGaussianBlur stdDeviation="2" in="shadowOffsetOuter1" result="shadowBlurOuter1"/><feColorMatrix values="0 0 0 0 0 0 0 0 0 0 0 0 0 0 0 0 0 0 0.5 0" in="shadowBlurOuter1"/></filter><path d="M3.383 44.313l.562.273c.478.233 1.454.503 4.803.503 1.363 0 2.792-.04 3.954-.076a69.695 69.695 0 0 1 1.884-.046l.24.003c.412.01 1.468.124 2.684.255 2.46.256 5.828.616 8.015.616.975 0 1.624-.069 2.035-.224.156-.056.567-.15 1.54-.15 2.599 0 6.749.67 6.793.679l.102.017 3.807-.501.156-.138c.26-.221 2.521-2.21 2.58-4.304.039-1.357.039-1.357 1.104-2.25l.302-.254c.898-.758 1.414-1.774 1.453-2.854.04-1.079-.416-2.138-1.28-2.983a2.365 2.365 0 0 1-.52-.7c-.512-1.014-.796-1.029-5.579-1.306-3.177-.189-5.436-.207-7.618-.227-2.167-.021-4.412-.04-7.55-.223-2.014-.117-3.638-.254-4.98-.364-3.085-.258-4.67-.357-5.998.021-.727.205-1.31.07-2.02-.137-.744-.222-1.622-.481-2.914-.329-.618.076-1.138.042-1.58.013-.226-.01-.431-.025-.622-.025-1.38 0-2.017.706-2.281 2.512-.136.938-.412 2.055-.706 3.24-.544 2.186-1.107 4.448-.804 5.908.416 2.015 1.123 2.432 2.438 3.05" id="D"/><filter x="-50%" y="-50%" width="200%" height="200%" filterUnits="objectBoundingBox" id="C"><feOffset in="SourceAlpha" result="shadowOffsetOuter1"/><feGaussianBlur stdDeviation="2" in="shadowOffsetOuter1" result="shadowBlurOuter1"/><feColorMatrix values="0 0 0 0 0 0 0 0 0 0 0 0 0 0 0 0 0 0 0.5 0" in="shadowBlurOuter1"/></filter><path d="M74.877 27.276c-.444-1.441-1.054-3.411-3.27-3.475-.787-.024-1.3-.082-1.803-.134-.975-.11-1.953-.219-4.76-.053-2.507.143-3.888-.322-5.076-.725-.694-.233-1.348-.455-2.078-.488l-.78-.035c-1.328-.066-3.556-.176-5.565-.176-3.76 0-4.374.389-4.685.787-.774 1-2.273 4.536.558 15.817.212.84.17 1.801.125 2.73-.063 1.457-.128 2.969.847 3.993.694.726 1.797 1.081 3.45 1.081.225-.003.675-.015 1.288-.028 1.544-.035 4.13-.099 6.692-.099 5.958 0 7.064.338 7.262.448l.3.22.365-.126c1.245-.44 5.318-2.025 5.372-4.013.014-.5.425-2.257.854-4.122 1.448-6.233 1.994-9.193 1.413-10.231-.197-.353-.347-.852-.509-1.37" id="F"/><filter x="-50%" y="-50%" width="200%" height="200%" filterUnits="objectBoundingBox" id="E"><feOffset in="SourceAlpha" result="shadowOffsetOuter1"/><feGaussianBlur stdDeviation="2" in="shadowOffsetOuter1" result="shadowBlurOuter1"/><feColorMatrix values="0 0 0 0 0 0 0 0 0 0 0 0 0 0 0 0 0 0 0.5 0" in="shadowBlurOuter1"/></filter><path d="M34.302 9.784c.077.961.139 1.785.555 2.699.221.477.426 1.248.644 2.07.457 1.693.887 3.299 1.77 3.932.817.59 3.53 2.027 4.848 2.027.277 0 .513-.058.7-.171.16-.022.613-.06 1.879-.06 6.524 0 25.616.937 25.81.946l.2.005c1.281 0 2.387-.572 3.283-1.701 3.012-3.793 2.754-12.981 2.342-14.914-.466-2.147-3.046-2.186-6.319-2.24-1.554-.026-3.31-.052-5.138-.289-3.925-.502-6.013-.388-9.186-.1-.964.088-2.055.188-3.39.28-2.953.202-4.208.558-5.042.798-.72.204-.998.264-1.83.098a65.892 65.892 0 0 1-1.978-.43c-1.851-.409-3.765-.839-5.24-.884-1.412 0-2.855.676-3.67 1.721-.713.915-.94 2.044-.651 3.276.285 1.222.355 2.136.413 2.937" id="H"/><filter x="-50%" y="-50%" width="200%" height="200%" filterUnits="objectBoundingBox" id="G"><feOffset in="SourceAlpha" result="shadowOffsetOuter1"/><feGaussianBlur stdDeviation="2" in="shadowOffsetOuter1" result="shadowBlurOuter1"/><feColorMatrix values="0 0 0 0 0 0 0 0 0 0 0 0 0 0 0 0 0 0 0.5 0" in="shadowBlurOuter1"/></filter><path d="M3.283 22.807c.309 1.799.493 2.882 2.64 4.123 2.486 1.433 6.216 1.545 9.213 1.626.595.018 1.508.066 2.604.126 2.427.122 5.746.297 8.461.297 3.29 0 4.277-.258 4.736-.452 1.083-.454 1.067-2.149 1.04-4.712-.015-1.362-.029-2.914.153-4.238.362-2.671.336-3.304.264-4.98a85.321 85.321 0 0 1-.069-1.815c-.028-1.047.072-2.273.165-3.458.232-2.89.413-5.181-.98-5.78l-.607-.268c-1.78-.785-5.483-2.429-7.75-2.621l-.856-.08c-1.65-.144-3.515-.313-5.81-.313-1.057 0-2.087.034-3.15.108C11.738.48 10.414.4 9.32.337 8.737.301 8.218.268 7.754.268c-.902 0-1.925.103-2.714.848C3.294 2.77 2.448 18.771 2.992 21.264c.133.596.218 1.1.291 1.543" id="J"/><filter x="-50%" y="-50%" width="200%" height="200%" filterUnits="objectBoundingBox" id="I"><feOffset in="SourceAlpha" result="shadowOffsetOuter1"/><feGaussianBlur stdDeviation="2" in="shadowOffsetOuter1" result="shadowBlurOuter1"/><feColorMatrix values="0 0 0 0 0 0 0 0 0 0 0 0 0 0 0 0 0 0 0.5 0" in="shadowBlurOuter1"/></filter><path d="M87.586 27.91c.478.029.943.029 1.421.054 1.61.113 3.166.195 4.653.248l1.483-4.49c.838-2.595 1.566-5.05 2.18-7.362a79.744 79.744 0 0 0 1.51-6.851c.81 4.624 1.856 8.973 3.142 13.046l1.772 5.504c2.693-.086 5.359-.223 7.997-.41l-9.392-25.443h-6.79l-9.588 25.592a50.7 50.7 0 0 0 1.612.111" id="L"/><filter x="-50%" y="-50%" width="200%" height="200%" filterUnits="objectBoundingBox" id="K"><feOffset in="SourceAlpha" result="shadowOffsetOuter1"/><feGaussianBlur stdDeviation="2" in="shadowOffsetOuter1" result="shadowBlurOuter1"/><feColorMatrix values="0 0 0 0 0 0 0 0 0 0 0 0 0 0 0 0 0 0 0.5 0" in="shadowBlurOuter1"/></filter><path d="M105.587 33.747l2.004 6.04h8.634l-2.136-5.785a157.003 157.003 0 0 1-8.502-.255" id="N"/><filter x="-50%" y="-50%" width="200%" height="200%" filterUnits="objectBoundingBox" id="M"><feOffset in="SourceAlpha" result="shadowOffsetOuter1"/><feGaussianBlur stdDeviation="2" in="shadowOffsetOuter1" result="shadowBlurOuter1"/><feColorMatrix values="0 0 0 0 0 0 0 0 0 0 0 0 0 0 0 0 0 0 0.5 0" in="shadowBlurOuter1"/></filter><path d="M84.759 31.038l-3.278 8.75h8.381l2.474-7.327h.516a139.47 139.47 0 0 1-8.093-1.423" id="P"/><filter x="-50%" y="-50%" width="200%" height="200%" filterUnits="objectBoundingBox" id="O"><feOffset in="SourceAlpha" result="shadowOffsetOuter1"/><feGaussianBlur stdDeviation="2" in="shadowOffsetOuter1" result="shadowBlurOuter1"/><feColorMatrix values="0 0 0 0 0 0 0 0 0 0 0 0 0 0 0 0 0 0 0.5 0" in="shadowBlurOuter1"/></filter><path d="M229.088 24.42l.23-.697c.839-2.596 1.564-5.05 2.18-7.363a79.657 79.657 0 0 0 1.508-6.852c.81 4.624 1.858 8.974 3.143 13.047l1.775 5.309c2.486.913 7.234 3.595 9.842 5.287L236.527 2.206h-6.79l-7.4 19.75c.525.042 5.228 1.722 6.75 2.464" id="R"/><filter x="-50%" y="-50%" width="200%" height="200%" filterUnits="objectBoundingBox" id="Q"><feOffset in="SourceAlpha" result="shadowOffsetOuter1"/><feGaussianBlur stdDeviation="2" in="shadowOffsetOuter1" result="shadowBlurOuter1"/><feColorMatrix values="0 0 0 0 0 0 0 0 0 0 0 0 0 0 0 0 0 0 0.5 0" in="shadowBlurOuter1"/></filter><path d="M239.323 32.336l2.442 7.451h8.634l-1.516-3.562c-2.493-1.242-6.34-2.801-9.56-3.889" id="T"/><filter x="-50%" y="-50%" width="200%" height="200%" filterUnits="objectBoundingBox" id="S"><feOffset in="SourceAlpha" result="shadowOffsetOuter1"/><feGaussianBlur stdDeviation="2" in="shadowOffsetOuter1" result="shadowBlurOuter1"/><feColorMatrix values="0 0 0 0 0 0 0 0 0 0 0 0 0 0 0 0 0 0 0.5 0" in="shadowBlurOuter1"/></filter><path d="M220.603 27.06l-4.948 12.727h8.383l3.468-10.41s-4.203-1.76-6.903-2.317" id="V"/><filter x="-50%" y="-50%" width="200%" height="200%" filterUnits="objectBoundingBox" id="U"><feOffset in="SourceAlpha" result="shadowOffsetOuter1"/><feGaussianBlur stdDeviation="2" in="shadowOffsetOuter1" result="shadowBlurOuter1"/><feColorMatrix values="0 0 0 0 0 0 0 0 0 0 0 0 0 0 0 0 0 0 0.5 0" in="shadowBlurOuter1"/></filter><path d="M200.727 24.885v14.902h8.717V25.574a112.797 112.797 0 0 0-8.717-.689" id="X"/><filter x="-50%" y="-50%" width="200%" height="200%" filterUnits="objectBoundingBox" id="W"><feOffset in="SourceAlpha" result="shadowOffsetOuter1"/><feGaussianBlur stdDeviation="2" in="shadowOffsetOuter1" result="shadowBlurOuter1"/><feColorMatrix values="0 0 0 0 0 0 0 0 0 0 0 0 0 0 0 0 0 0 0.5 0" in="shadowBlurOuter1"/></filter><path d="M209.444 18.972V2.206h-8.717v15.58c2.914.28 5.822.675 8.717 1.186" id="Z"/><filter x="-50%" y="-50%" width="200%" height="200%" filterUnits="objectBoundingBox" id="Y"><feOffset in="SourceAlpha" result="shadowOffsetOuter1"/><feGaussianBlur stdDeviation="2" in="shadowOffsetOuter1" result="shadowBlurOuter1"/><feColorMatrix values="0 0 0 0 0 0 0 0 0 0 0 0 0 0 0 0 0 0 0.5 0" in="shadowBlurOuter1"/></filter><path d="M168.983 18.688a133.54 133.54 0 0 1 3.2-.434V6.369h1.468c1.368 0 2.547.121 3.54.365.991.243 1.803.625 2.43 1.144.629.52 1.09 1.192 1.384 2.02.293.828.44 1.825.44 2.994 0 2.158-.699 3.692-2.096 4.6l-.122.074c3.116-.221 6.237-.33 9.356-.322.911-1.44 1.37-3.189 1.37-5.252 0-3.505-1.468-6.111-4.4-7.814-2.32-1.314-5.855-1.972-10.605-1.972h-11.483v17.372c1.823-.316 3.658-.617 5.518-.89" id="ab"/><filter x="-50%" y="-50%" width="200%" height="200%" filterUnits="objectBoundingBox" id="aa"><feOffset in="SourceAlpha" result="shadowOffsetOuter1"/><feGaussianBlur stdDeviation="2" in="shadowOffsetOuter1" result="shadowBlurOuter1"/><feColorMatrix values="0 0 0 0 0 0 0 0 0 0 0 0 0 0 0 0 0 0 0.5 0" in="shadowBlurOuter1"/></filter><path d="M175.344 26.289l8.7 13.498h8.842l-9.42-14.47c-2.72.246-5.426.573-8.122.972" id="ad"/><filter x="-50%" y="-50%" width="200%" height="200%" filterUnits="objectBoundingBox" id="ac"><feOffset in="SourceAlpha" result="shadowOffsetOuter1"/><feGaussianBlur stdDeviation="2" in="shadowOffsetOuter1" result="shadowBlurOuter1"/><feColorMatrix values="0 0 0 0 0 0 0 0 0 0 0 0 0 0 0 0 0 0 0.5 0" in="shadowBlurOuter1"/></filter><path d="M170.268 27.123c-2.274.41-4.538.833-6.803 1.258v11.407h8.717V26.79c-.637.107-1.277.217-1.914.332" id="af"/><filter x="-50%" y="-50%" width="200%" height="200%" filterUnits="objectBoundingBox" id="ae"><feOffset in="SourceAlpha" result="shadowOffsetOuter1"/><feGaussianBlur stdDeviation="2" in="shadowOffsetOuter1" result="shadowBlurOuter1"/><feColorMatrix values="0 0 0 0 0 0 0 0 0 0 0 0 0 0 0 0 0 0 0.5 0" in="shadowBlurOuter1"/></filter><path d="M131.149 25.491V6.466h1.088c4.695 0 7.92 1.087 9.682 3.26 1.761 2.176 2.64 6.159 2.64 11.953 0 .477-.008.937-.024 1.387 3.06-.613 6.102-1.24 9.16-1.85-.021-4.38-.536-7.756-1.55-10.126-1.034-2.498-2.765-4.526-5.196-6.085-1.62-1.038-3.464-1.76-5.533-2.166-2.235-.422-4.988-.633-8.257-.633H122.43v24.472c2.936-.34 5.842-.74 8.719-1.187" id="ah"/><filter x="-50%" y="-50%" width="200%" height="200%" filterUnits="objectBoundingBox" id="ag"><feOffset in="SourceAlpha" result="shadowOffsetOuter1"/><feGaussianBlur stdDeviation="2" in="shadowOffsetOuter1" result="shadowBlurOuter1"/><feColorMatrix values="0 0 0 0 0 0 0 0 0 0 0 0 0 0 0 0 0 0 0.5 0" in="shadowBlurOuter1"/></filter><path d="M142.376 31.864a5.82 5.82 0 0 1-.582.694c-1.79 1.867-5.337 2.8-10.645 2.8v-2.144c-2.893.263-5.8.457-8.719.578v5.995h7.042c8.157 0 13.815-.819 16.975-2.457 2.569-1.314 4.413-3.222 5.532-5.72.194-.445.367-.92.528-1.409a334.359 334.359 0 0 1-10.131 1.663" id="aj"/><filter x="-50%" y="-50%" width="200%" height="200%" filterUnits="objectBoundingBox" id="ai"><feOffset in="SourceAlpha" result="shadowOffsetOuter1"/><feGaussianBlur stdDeviation="2" in="shadowOffsetOuter1" result="shadowBlurOuter1"/><feColorMatrix values="0 0 0 0 0 0 0 0 0 0 0 0 0 0 0 0 0 0 0.5 0" in="shadowBlurOuter1"/></filter></defs><g fill="none" fill-rule="evenodd"><use fill="#000" filter="url(#a)" xlink:href="#b"/><use fill="#FFF" xlink:href="#b"/><use fill="#000" filter="url(#c)" xlink:href="#d"/><use fill="#FFF" xlink:href="#d"/><use fill="#000" filter="url(#e)" xlink:href="#f"/><use fill="#FFF" xlink:href="#f"/><use fill="#000" filter="url(#g)" xlink:href="#h"/><use fill="#FFF" xlink:href="#h"/><use fill="#000" filter="url(#i)" xlink:href="#j"/><use fill="#FFF" xlink:href="#j"/><use fill="#000" filter="url(#k)" xlink:href="#l"/><use fill="#FFF" xlink:href="#l"/><use fill="#000" filter="url(#m)" xlink:href="#n"/><use fill="#FFF" xlink:href="#n"/><use fill="#000" filter="url(#o)" xlink:href="#p"/><use fill="#FFF" xlink:href="#p"/><use fill="#000" filter="url(#q)" xlink:href="#r"/><use fill="#FFF" xlink:href="#r"/><use fill="#000" filter="url(#s)" xlink:href="#t"/><use fill="#FFF" xlink:href="#t"/><g transform="translate(3 3.827)"><use fill="#000" filter="url(#u)" xlink:href="#v"/><use fill="#FFF" xlink:href="#v"/></g><g transform="translate(3 3.827)"><use fill="#000" filter="url(#w)" xlink:href="#x"/><use fill="#FFF" xlink:href="#x"/></g><g transform="translate(3 3.827)"><use fill="#000" filter="url(#y)" xlink:href="#z"/><use fill="#FFF" xlink:href="#z"/></g><g transform="translate(3 3.827)"><use fill="#000" filter="url(#A)" xlink:href="#B"/><use fill="#FFF" xlink:href="#B"/></g><g transform="translate(3 3.827)"><use fill="#000" filter="url(#C)" xlink:href="#D"/><use fill="#FFF" xlink:href="#D"/></g><g transform="translate(3 3.827)"><use fill="#000" filter="url(#E)" xlink:href="#F"/><use fill="#FFF" xlink:href="#F"/></g><g transform="translate(3 3.827)"><use fill="#000" filter="url(#G)" xlink:href="#H"/><use fill="#FFF" xlink:href="#H"/></g><g transform="translate(3 3.827)"><use fill="#000" filter="url(#I)" xlink:href="#J"/><use fill="#FFF" xlink:href="#J"/></g><g transform="translate(3 3.827)"><use fill="#000" filter="url(#K)" xlink:href="#L"/><use fill="#FFF" xlink:href="#L"/></g><g transform="translate(3 3.827)"><use fill="#000" filter="url(#M)" xlink:href="#N"/><use fill="#FFF" xlink:href="#N"/></g><g transform="translate(3 3.827)"><use fill="#000" filter="url(#O)" xlink:href="#P"/><use fill="#FFF" xlink:href="#P"/></g><g transform="translate(3 3.827)"><use fill="#000" filter="url(#Q)" xlink:href="#R"/><use fill="#FFF" xlink:href="#R"/></g><g transform="translate(3 3.827)"><use fill="#000" filter="url(#S)" xlink:href="#T"/><use fill="#FFF" xlink:href="#T"/></g><g transform="translate(3 3.827)"><use fill="#000" filter="url(#U)" xlink:href="#V"/><use fill="#FFF" xlink:href="#V"/></g><g transform="translate(3 3.827)"><use fill="#000" filter="url(#W)" xlink:href="#X"/><use fill="#FFF" xlink:href="#X"/></g><g transform="translate(3 3.827)"><use fill="#000" filter="url(#Y)" xlink:href="#Z"/><use fill="#FFF" xlink:href="#Z"/></g><g transform="translate(3 3.827)"><use fill="#000" filter="url(#aa)" xlink:href="#ab"/><use fill="#FFF" xlink:href="#ab"/></g><g transform="translate(3 3.827)"><use fill="#000" filter="url(#ac)" xlink:href="#ad"/><use fill="#FFF" xlink:href="#ad"/></g><g transform="translate(3 3.827)"><use fill="#000" filter="url(#ae)" xlink:href="#af"/><use fill="#FFF" xlink:href="#af"/></g><g transform="translate(3 3.827)"><use fill="#000" filter="url(#ag)" xlink:href="#ah"/><use fill="#FFF" xlink:href="#ah"/></g><g transform="translate(3 3.827)"><use fill="#000" filter="url(#ai)" xlink:href="#aj"/><use fill="#FFF" xlink:href="#aj"/></g></g></svg>