<?xml version="1.0" encoding="UTF-8" standalone="no"?>
<svg width="54px" height="60px" viewBox="0 0 54 60" version="1.1" xmlns="http://www.w3.org/2000/svg" xmlns:xlink="http://www.w3.org/1999/xlink">
    <!-- Generator: Sketch 41.2 (35397) - http://www.bohemiancoding.com/sketch -->
    <title>Icon-3d</title>
    <desc>Created with Sketch.</desc>
    <defs></defs>
    <g id="Symbols" stroke="none" stroke-width="1" fill="none" fill-rule="evenodd">
        <g id="Easy-order-process-HD" transform="translate(-932.000000, -238.000000)" fill="#C5B49F">
            <g id="Easy-order-process">
                <g id="3d-visualization" transform="translate(901.000000, 238.000000)">
                    <g id="Icon-3d" transform="translate(31.000000, 0.000000)">
                        <path d="M53.965,13.743 C53.959,13.721 53.947,13.701 53.94,13.679 C53.919,13.617 53.896,13.557 53.863,13.501 C53.847,13.473 53.825,13.449 53.806,13.422 C53.774,13.377 53.741,13.333 53.702,13.294 C53.676,13.268 53.647,13.247 53.619,13.224 C53.592,13.202 53.569,13.177 53.54,13.158 C53.524,13.148 53.505,13.143 53.489,13.134 C53.474,13.126 53.463,13.113 53.448,13.106 L27.448,0.106 C27.439,0.102 27.429,0.104 27.42,0.099 C27.291,0.039 27.151,0 27,0 C26.849,0 26.709,0.039 26.581,0.099 C26.572,0.103 26.562,0.101 26.553,0.106 L0.553,13.106 C0.538,13.114 0.527,13.126 0.512,13.134 C0.495,13.143 0.477,13.148 0.461,13.158 C0.431,13.177 0.409,13.203 0.382,13.224 C0.353,13.247 0.325,13.268 0.299,13.293 C0.26,13.332 0.227,13.376 0.195,13.421 C0.176,13.448 0.154,13.472 0.138,13.5 C0.105,13.556 0.082,13.617 0.061,13.679 C0.054,13.701 0.042,13.72 0.036,13.743 C0.013,13.826 0,13.912 0,14 L0,46 C0,46.006 0.003,46.012 0.003,46.018 C0.003,46.038 0.01,46.057 0.011,46.076 C0.019,46.178 0.043,46.276 0.08,46.368 C0.087,46.384 0.084,46.402 0.092,46.418 C0.1,46.436 0.114,46.449 0.124,46.466 C0.149,46.512 0.177,46.554 0.209,46.596 C0.235,46.631 0.261,46.665 0.291,46.695 C0.325,46.729 0.362,46.759 0.401,46.788 C0.437,46.816 0.473,46.843 0.512,46.865 C0.527,46.873 0.538,46.886 0.553,46.893 L26.553,59.893 C26.568,59.9 26.584,59.897 26.599,59.904 C26.727,59.962 26.862,60 27,60 C27.138,60 27.273,59.962 27.401,59.905 C27.416,59.898 27.433,59.901 27.447,59.894 L53.447,46.894 C53.786,46.725 54,46.379 54,46 L54,14 C54,13.912 53.988,13.826 53.965,13.743 Z M3.724,44.743 C3.493,44.242 2.899,44.023 2.397,44.254 L2,44.437 L2,15.563 L26,26.64 L26,57.382 L3.293,46.028 C3.747,45.777 3.945,45.222 3.724,44.743 Z M27,3 C27.353,3 27.648,2.807 27.826,2.531 L50.692,13.964 L28,24.437 L28,24 C28,23.448 27.552,23 27,23 C26.448,23 26,23.448 26,24 L26,24.437 L3.308,13.964 L26.174,2.531 C26.352,2.807 26.647,3 27,3 Z M28,35.563 L29.636,36.318 C29.772,36.381 29.914,36.41 30.054,36.41 C30.432,36.41 30.794,36.194 30.963,35.828 C31.194,35.327 30.975,34.732 30.474,34.501 L28.658,33.663 C28.443,33.564 28.214,33.562 28,33.616 L28,26.64 L52,15.563 L52,44.437 L50.449,43.721 C49.948,43.49 49.353,43.708 49.122,44.21 C48.89,44.711 49.109,45.305 49.611,45.537 L50.692,46.036 L28,57.382 L28,35.563 Z" id="Shape"></path>
                        <path d="M17.344,39.457 C17.485,39.457 17.627,39.428 17.762,39.365 L19.578,38.527 C20.079,38.296 20.299,37.701 20.067,37.2 C19.836,36.699 19.241,36.48 18.74,36.711 L16.924,37.549 C16.423,37.78 16.203,38.375 16.435,38.876 C16.604,39.242 16.966,39.457 17.344,39.457 Z" id="Shape"></path>
                        <path d="M11.896,41.971 C12.036,41.971 12.179,41.942 12.314,41.879 L14.13,41.041 C14.631,40.81 14.85,40.215 14.619,39.714 C14.388,39.213 13.794,38.993 13.292,39.225 L11.476,40.063 C10.975,40.294 10.756,40.889 10.987,41.39 C11.156,41.756 11.518,41.971 11.896,41.971 Z" id="Shape"></path>
                        <path d="M6.448,44.486 C6.589,44.486 6.731,44.456 6.866,44.393 L8.682,43.555 C9.183,43.324 9.403,42.729 9.171,42.228 C8.94,41.727 8.343,41.508 7.844,41.739 L6.028,42.577 C5.527,42.808 5.307,43.403 5.539,43.904 C5.708,44.271 6.07,44.486 6.448,44.486 Z" id="Shape"></path>
                        <path d="M41.369,39.53 L39.553,38.692 C39.052,38.461 38.457,38.68 38.226,39.181 C37.995,39.682 38.214,40.277 38.715,40.508 L40.531,41.346 C40.667,41.409 40.809,41.438 40.949,41.438 C41.327,41.438 41.689,41.223 41.858,40.857 C42.089,40.356 41.871,39.762 41.369,39.53 Z" id="Shape"></path>
                        <path d="M46.817,42.045 L45.001,41.207 C44.501,40.975 43.905,41.194 43.674,41.696 C43.442,42.197 43.661,42.791 44.163,43.023 L45.979,43.861 C46.115,43.924 46.257,43.953 46.397,43.953 C46.775,43.953 47.137,43.738 47.305,43.372 C47.538,42.871 47.318,42.277 46.817,42.045 Z" id="Shape"></path>
                        <path d="M35.921,37.017 L34.105,36.179 C33.604,35.946 33.009,36.166 32.778,36.668 C32.546,37.169 32.765,37.763 33.267,37.995 L35.083,38.833 C35.219,38.896 35.361,38.925 35.501,38.925 C35.879,38.925 36.241,38.71 36.409,38.344 C36.642,37.842 36.423,37.248 35.921,37.017 Z" id="Shape"></path>
                        <path d="M22.792,36.942 C22.932,36.942 23.075,36.913 23.21,36.85 L25.026,36.012 C25.527,35.781 25.746,35.186 25.515,34.685 C25.283,34.184 24.69,33.964 24.188,34.196 L22.372,35.034 C21.871,35.265 21.652,35.86 21.883,36.361 C22.052,36.727 22.414,36.942 22.792,36.942 Z" id="Shape"></path>
                        <path d="M27,9 C27.552,9 28,8.552 28,8 L28,6 C28,5.448 27.552,5 27,5 C26.448,5 26,5.448 26,6 L26,8 C26,8.552 26.448,9 27,9 Z" id="Shape"></path>
                        <path d="M27,15 C27.552,15 28,14.552 28,14 L28,12 C28,11.448 27.552,11 27,11 C26.448,11 26,11.448 26,12 L26,14 C26,14.552 26.448,15 27,15 Z" id="Shape"></path>
                        <path d="M27,21 C27.552,21 28,20.552 28,20 L28,18 C28,17.448 27.552,17 27,17 C26.448,17 26,17.448 26,18 L26,20 C26,20.552 26.448,21 27,21 Z" id="Shape"></path>
                    </g>
                </g>
            </g>
        </g>
    </g>
</svg>