<?xml version="1.0" encoding="UTF-8" standalone="no"?>
<svg width="56px" height="58px" viewBox="0 0 56 58" version="1.1" xmlns="http://www.w3.org/2000/svg" xmlns:xlink="http://www.w3.org/1999/xlink">
    <!-- Generator: Sketch 41.2 (35397) - http://www.bohemiancoding.com/sketch -->
    <title>icon-cnc_production</title>
    <desc>Created with Sketch.</desc>
    <defs></defs>
    <g id="Symbols" stroke="none" stroke-width="1" fill="none" fill-rule="evenodd">
        <g id="Easy-order-process-HD" transform="translate(-1174.000000, -241.000000)" fill="#C5B49F">
            <g id="Easy-order-process">
                <g id="CNC-production" transform="translate(1143.000000, 241.000000)">
                    <g id="icon-cnc_production" transform="translate(31.000000, 0.000000)">
                        <g id="Layer_1">
                            <path d="M33.0431211,23.6257109 C31.2760469,23.6257109 29.8385078,25.06325 29.8385078,26.8303242 C29.8385078,28.5973984 31.2760469,30.0349375 33.0431211,30.0349375 C34.810082,30.0349375 36.2477344,28.5973984 36.2477344,26.8303242 C36.2477344,25.06325 34.8101953,23.6257109 33.0431211,23.6257109 Z M33.0431211,27.7241133 C32.5502344,27.7241133 32.149332,27.3232109 32.149332,26.8303242 C32.149332,26.3374375 32.5503477,25.9365352 33.0431211,25.9365352 C33.5358945,25.9365352 33.9369102,26.3374375 33.9369102,26.8303242 C33.9369102,27.3232109 33.5360078,27.7241133 33.0431211,27.7241133 Z" id="Shape"></path>
                            <path d="M54.7402188,6.38849609 L47.8694844,6.38849609 C47.2313711,6.38849609 46.7141289,6.90573828 46.7141289,7.54385156 L46.7141289,8.91976563 L43.5300195,8.91976563 C42.8919063,8.91976563 42.3746641,9.43700781 42.3746641,10.0751211 L42.3746641,13.6911719 C42.3746641,14.3292852 42.8919063,14.8465273 43.5300195,14.8465273 L46.7141289,14.8465273 L46.7141289,22.4200586 L39.9844297,22.4200586 L39.9844297,20.5621328 C39.9844297,19.9240195 39.4671875,19.4067773 38.8290742,19.4067773 L38.0559297,19.4067773 L38.0559297,16.8254375 C38.0559297,16.1873242 37.5386875,15.670082 36.9005742,15.670082 L29.1860078,15.670082 C28.5478945,15.670082 28.0306523,16.1873242 28.0306523,16.8254375 L28.0306523,19.4067773 L27.2573945,19.4067773 C26.6192813,19.4067773 26.1020391,19.9240195 26.1020391,20.5621328 L26.1020391,22.4201719 L17.5642578,22.4201719 L17.5642578,16.7753672 L24.0028242,16.7753672 C24.6409375,16.7753672 25.1581797,16.258125 25.1581797,15.6200117 L25.1581797,11.8833164 C25.1581797,7.45084766 21.8441367,3.78008203 17.5642578,3.21265625 L17.5642578,1.15535547 C17.5640313,0.517242187 17.0467891,0 16.4086758,0 L1.22071875,0 C0.582605469,0 0.0653632813,0.517242187 0.0653632813,1.15535547 L0.0653632813,54.433793 C0.0653632813,55.0719063 0.582605469,55.5891484 1.22071875,55.5891484 L3.44046484,55.5891484 L3.44046484,56.8445313 C3.44046484,57.4826445 3.95770703,57.9998867 4.59582031,57.9998867 C5.23393359,57.9998867 5.75117578,57.4826445 5.75117578,56.8445313 L5.75117578,55.5891484 L16.4586328,55.5891484 L16.4586328,56.8445313 C16.4586328,57.4826445 16.975875,57.9998867 17.6139883,57.9998867 C18.2521016,57.9998867 18.7693438,57.4826445 18.7693438,56.8445313 L18.7693438,55.5891484 L50.4507109,55.5891484 L50.4507109,56.8445313 C50.4507109,57.4826445 50.9679531,57.9998867 51.6060664,57.9998867 C52.2441797,57.9998867 52.7614219,57.4826445 52.7614219,56.8445313 L52.7614219,55.5891484 L54.7399922,55.5891484 C55.3781055,55.5891484 55.8953477,55.0719063 55.8953477,54.433793 L55.8953477,7.54396484 C55.8955742,6.90585156 55.378332,6.38849609 54.7402188,6.38849609 Z M17.5640312,5.54874219 C20.5647383,6.09464453 22.8472422,8.72752734 22.8472422,11.8834297 L22.8472422,14.4647695 L17.5640312,14.4647695 L17.5640312,5.54874219 Z M44.685375,12.536043 L44.685375,11.2307031 L46.7141289,11.2307031 L46.7141289,12.536043 L44.685375,12.536043 Z M30.34125,17.9809062 L35.7451055,17.9809062 L35.7451055,19.4068906 L30.34125,19.4068906 L30.34125,17.9809062 Z M28.4125234,21.7176016 L37.6736055,21.7176016 L37.6736055,32.0634648 L28.4125234,32.0634648 L28.4125234,21.7176016 Z M17.5640312,24.7311094 L26.1018125,24.7311094 L26.1018125,26.7598633 L17.5640312,26.7598633 L17.5640312,24.7311094 Z M2.37607422,2.31071094 L15.2533203,2.31071094 L15.2533203,30.7375078 L15.253207,30.7375078 L2.37607422,30.7375078 L2.37607422,2.31071094 Z M20.1955547,33.2188203 L20.1955547,53.2784375 L20.1954414,53.2784375 L2.37607422,53.2784375 L2.37607422,33.048332 L16.4087891,33.048332 C17.0469023,33.048332 17.5641445,32.5310898 17.5641445,31.8929766 L17.5641445,29.0704609 L26.1019258,29.0704609 L26.1019258,32.0634648 L21.3509102,32.0634648 C20.7127969,32.0634648 20.1955547,32.580707 20.1955547,33.2188203 Z M46.8346602,53.2784375 L22.5061523,53.2784375 L22.5061523,51.7319219 L46.8346602,51.7319219 L46.8346602,53.2784375 Z M46.8346602,49.4212109 L22.5061523,49.4212109 L22.5061523,46.6693828 L46.8346602,46.6693828 L46.8346602,49.4212109 Z M46.8346602,44.3585586 L22.5061523,44.3585586 L22.5061523,39.4369414 L46.8346602,39.4369414 L46.8346602,44.3585586 Z M46.8346602,37.1261172 L22.5061523,37.1261172 L22.5061523,34.3742891 L46.8346602,34.3742891 L46.8346602,37.1261172 Z M53.5848633,53.2784375 L49.1454844,53.2784375 L49.1454844,33.2188203 L49.1454844,33.2188203 C49.1454844,32.580707 48.6282422,32.0634648 47.9901289,32.0634648 L39.984543,32.0634648 L39.984543,29.0704609 L53.5849766,29.0704609 L53.5849766,53.2784375 L53.5848633,53.2784375 Z M53.5848633,26.7598633 L39.9844297,26.7598633 L39.9844297,24.7311094 L53.5848633,24.7311094 L53.5848633,26.7598633 Z M53.5848633,22.4202852 L49.0249531,22.4202852 L49.0249531,8.69932031 L53.5848633,8.69932031 L53.5848633,22.4202852 Z" id="Shape"></path>
                            <path d="M6.58469922,3.49563281 C4.91742578,3.49563281 3.56099609,4.8520625 3.56099609,6.51933594 C3.56099609,8.18660937 4.91742578,9.54303906 6.58469922,9.54303906 C8.25197266,9.54303906 9.60840234,8.18660937 9.60840234,6.51933594 C9.60840234,4.8520625 8.25197266,3.49563281 6.58469922,3.49563281 Z M6.58469922,7.23232812 C6.1915,7.23232812 5.87170703,6.91253516 5.87170703,6.51933594 C5.87170703,6.12613672 6.1915,5.80634375 6.58469922,5.80634375 C6.97789844,5.80634375 7.29769141,6.12613672 7.29769141,6.51933594 C7.29769141,6.91253516 6.97789844,7.23232812 6.58469922,7.23232812 Z" id="Shape"></path>
                            <path d="M11.0446953,23.2641172 C9.37742188,23.2641172 8.02099219,24.6205469 8.02099219,26.2878203 C8.02099219,27.9550938 9.37742188,29.3115234 11.0446953,29.3115234 C12.7119688,29.3115234 14.0683984,27.9550938 14.0683984,26.2878203 C14.0683984,24.6205469 12.7119688,23.2641172 11.0446953,23.2641172 Z M11.0446953,27.0008125 C10.6514961,27.0008125 10.3317031,26.6810195 10.3317031,26.2878203 C10.3317031,25.8946211 10.6516094,25.5748281 11.0446953,25.5748281 C11.4377813,25.5748281 11.7576875,25.8946211 11.7576875,26.2878203 C11.7576875,26.6810195 11.4378945,27.0008125 11.0446953,27.0008125 Z" id="Shape"></path>
                            <path d="M11.0446953,15.7907266 C9.37742188,15.7907266 8.02099219,17.1471562 8.02099219,18.8144297 C8.02099219,20.4817031 9.37742188,21.8381328 11.0446953,21.8381328 C12.7119688,21.8381328 14.0683984,20.4817031 14.0683984,18.8144297 C14.0683984,17.147043 12.7119688,15.7907266 11.0446953,15.7907266 Z M11.0446953,19.5274219 C10.6514961,19.5274219 10.3317031,19.2075156 10.3317031,18.8144297 C10.3317031,18.4213437 10.6516094,18.1014375 11.0446953,18.1014375 C11.4377813,18.1014375 11.7576875,18.4212305 11.7576875,18.8144297 C11.7576875,19.2076289 11.4378945,19.5274219 11.0446953,19.5274219 Z" id="Shape"></path>
                            <path d="M4.71635156,35.6797422 C4.07823828,35.6797422 3.56099609,36.1969844 3.56099609,36.8350977 L3.56099609,37.4378672 C3.56099609,38.0759805 4.07823828,38.5932227 4.71635156,38.5932227 C5.35446484,38.5932227 5.87170703,38.0759805 5.87170703,37.4378672 L5.87170703,36.8350977 C5.87170703,36.1969844 5.35446484,35.6797422 4.71635156,35.6797422 Z" id="Shape"></path>
                            <path d="M4.71635156,40.0190938 C4.07823828,40.0190938 3.56099609,40.5363359 3.56099609,41.1744492 L3.56099609,50.9381602 C3.56099609,51.5762734 4.07823828,52.0935156 4.71635156,52.0935156 C5.35446484,52.0935156 5.87170703,51.5762734 5.87170703,50.9381602 L5.87170703,41.1744492 C5.87170703,40.5363359 5.35446484,40.0190938 4.71635156,40.0190938 Z" id="Shape"></path>
                        </g>
                    </g>
                </g>
            </g>
        </g>
    </g>
</svg>