<?xml version="1.0" encoding="UTF-8" standalone="no"?>
<svg width="20px" height="20px" viewBox="0 0 20 20" version="1.1" xmlns="http://www.w3.org/2000/svg" xmlns:xlink="http://www.w3.org/1999/xlink">
    <!-- Generator: Sketch 41.2 (35397) - http://www.bohemiancoding.com/sketch -->
    <title>Icon-Facebook </title>
    <desc>Created with Sketch.</desc>
    <defs></defs>
    <g id="Symbols" stroke="none" stroke-width="1" fill="none" fill-rule="evenodd">
        <g id="Header---white-background-HD" transform="translate(-1245.000000, -31.000000)" fill="#4A4A4A">
            <g id="Header---white-background" transform="translate(370.000000, 28.000000)">
                <g id="Group-2-Copy">
                    <g id="Social-icons" transform="translate(875.000000, 3.000000)">
                        <path d="M18.8954752,0.000393442623 L1.10386617,0.000393442623 C0.494632154,0.000393442623 0,0.49403765 0,1.10425961 L0,18.8958686 C0,19.5060906 0.494632154,20.0003934 1.10386617,20.0003934 L10.6823421,20.0003934 L10.6823421,12.2552179 L8.07613779,12.2552179 L8.07613779,9.23638106 L10.6823421,9.23638106 L10.6823421,7.01020705 C10.6823421,4.42738416 12.2594349,3.02021825 14.563986,3.02021825 C15.6688402,3.02021825 16.6162814,3.10287648 16.8925772,3.13877189 L16.8925772,5.83850185 L15.2940789,5.83916048 C14.0410327,5.83916048 13.799315,6.43489255 13.799315,7.30856706 L13.799315,9.23539311 L16.7888428,9.23539311 L16.3979451,12.2539007 L13.7989857,12.2539007 L13.7989857,19.9994055 L18.8951459,19.9994055 C19.5050385,19.9994055 20,19.504444 20,18.8958686 L20,1.10360098 C19.9996707,0.49403765 19.5053678,0.000393442623 18.8954752,0.000393442623 Z" id="Icon-Facebook"></path>
                    </g>
                </g>
            </g>
        </g>
    </g>
</svg>