<?xml version="1.0" encoding="UTF-8" standalone="no"?>
<svg width="60px" height="41px" viewBox="0 0 60 41" version="1.1" xmlns="http://www.w3.org/2000/svg" xmlns:xlink="http://www.w3.org/1999/xlink">
    <!-- Generator: Sketch 41.2 (35397) - http://www.bohemiancoding.com/sketch -->
    <title>Icon-instalation</title>
    <desc>Created with Sketch.</desc>
    <defs></defs>
    <g id="Symbols" stroke="none" stroke-width="1" fill="none" fill-rule="evenodd">
        <g id="Easy-order-process-HD" transform="translate(-1416.000000, -254.000000)" fill="#C5B49F">
            <g id="Easy-order-process">
                <g id="Installation" transform="translate(1386.000000, 254.000000)">
                    <g id="Icon-instalation" transform="translate(30.000000, 0.000000)">
                        <g id="Layer_1">
                            <path d="M52.3375781,23.4884766 L50.2489453,21.4754297 L50.4239063,21.2939063 C50.806875,20.8964063 50.7951563,20.2638281 50.3978906,19.8807422 C50.0003906,19.4976563 49.3676953,19.5094922 48.9847266,19.9067578 L48.8098828,20.0880469 L48.5530078,19.8404297 C48.43125,19.7230078 48.2785547,19.6430859 48.1128516,19.6095703 L43.6967578,18.7195313 C43.4000391,18.6597656 43.0932422,18.7555078 42.883125,18.9734766 L42.5944922,19.273125 C42.2546484,19.6257422 42.2648438,20.1870703 42.6175781,20.5271484 L45.6082031,23.4100781 L40.0617188,29.1645703 C40.5994922,29.4561328 41.1097266,29.7670313 41.6553516,30.3916406 L47.0475,24.7972266 L49.1361328,26.8102734 C49.48875,27.1501172 50.0501953,27.1399219 50.3901563,26.7871875 L52.3608984,24.7423828 C52.7005078,24.3897656 52.6901953,23.8284375 52.3375781,23.4884766 Z" id="Shape"></path>
                            <circle id="Oval" cx="35.443125" cy="6.32003906" r="6.25125"></circle>
                            <path d="M39.6357422,31.2373828 L30.3359766,26.4510937 L28.5400781,17.2597266 L29.7614062,20.1344531 C31.5420703,18.7176562 31.884375,16.1327344 30.5105859,14.2996875 C28.6935937,11.8751953 25.9468359,10.3192969 22.933125,10.0076953 C19.9194141,9.69609375 16.9125,10.6567969 14.6377734,12.6583594 L7.88402344,18.6008203 C6.20144531,20.0813672 5.27273437,22.239375 5.35453125,24.4790625 C5.43257812,26.6176172 6.42550781,28.6129687 8.06964844,29.9676562 C8.40539062,30.3658594 8.24121094,30.2053125 12.7691016,33.616875 L3.41976562,33.5589844 L3.39832031,33.5589844 C1.53117187,33.5589844 0.01171875,35.0668359 0.0001171875,36.9366797 C-0.0116015625,38.8136719 1.50058594,40.46625 3.37769531,40.4778516 L22.9908984,40.4778516 L23.0119922,40.4778516 C24.46875,40.4777344 25.7646094,39.5489062 26.2316016,38.1675 C26.7008203,36.7792969 26.2273828,35.2464844 25.0571484,34.3647656 L17.9368359,28.9998047 L22.8916406,25.2866016 L23.0422266,18.6612891 L25.0398047,28.8842578 C25.2059766,29.7349219 25.7526562,30.4626562 26.5235156,30.8594531 L37.0436719,36.2738672 C38.4353906,36.9901172 40.1424609,36.4417969 40.8580078,35.0516016 C41.5737891,33.6609375 41.0265234,31.9531641 39.6357422,31.2373828 Z" id="Shape"></path>
                            <path d="M59.0005078,38.4792187 L35.8543359,38.4792187 L35.83125,38.4792187 C35.2792969,38.4792187 34.8317578,38.9267578 34.8317578,39.4787109 C34.8317578,40.0306641 35.2792969,40.4782031 35.83125,40.4782031 L59.0005078,40.4782031 C59.5524609,40.4782031 60,40.0306641 60,39.4787109 C60,38.9267578 59.5524609,38.4792187 59.0005078,38.4792187 Z" id="Shape"></path>
                        </g>
                    </g>
                </g>
            </g>
        </g>
    </g>
</svg>