<?xml version="1.0" encoding="UTF-8" standalone="no"?>
<svg width="20px" height="20px" viewBox="0 0 20 20" version="1.1" xmlns="http://www.w3.org/2000/svg" xmlns:xlink="http://www.w3.org/1999/xlink">
    <!-- Generator: Sketch 41.2 (35397) - http://www.bohemiancoding.com/sketch -->
    <title>Icon-Instagram</title>
    <desc>Created with Sketch.</desc>
    <defs>
        <rect id="path-1" x="0" y="0" width="28" height="20" rx="2"></rect>
        <rect id="path-3" x="0" y="6.66666667" width="28" height="6.66666667"></rect>
        <filter x="-50%" y="-50%" width="200%" height="200%" filterUnits="objectBoundingBox" id="filter-4">
            <feMorphology radius="0.5" operator="dilate" in="SourceAlpha" result="shadowSpreadOuter1"></feMorphology>
            <feOffset dx="0" dy="0" in="shadowSpreadOuter1" result="shadowOffsetOuter1"></feOffset>
            <feColorMatrix values="0 0 0 0 0   0 0 0 0 0   0 0 0 0 0  0 0 0 0.06 0" type="matrix" in="shadowOffsetOuter1"></feColorMatrix>
        </filter>
        <rect id="path-5" x="0" y="13.3333333" width="28" height="6.66666667"></rect>
        <filter x="-50%" y="-50%" width="200%" height="200%" filterUnits="objectBoundingBox" id="filter-6">
            <feMorphology radius="0.5" operator="dilate" in="SourceAlpha" result="shadowSpreadOuter1"></feMorphology>
            <feOffset dx="0" dy="0" in="shadowSpreadOuter1" result="shadowOffsetOuter1"></feOffset>
            <feColorMatrix values="0 0 0 0 0   0 0 0 0 0   0 0 0 0 0  0 0 0 0.06 0" type="matrix" in="shadowOffsetOuter1"></feColorMatrix>
        </filter>
        <rect id="path-7" x="17" y="0" width="34" height="26" rx="2"></rect>
        <mask id="mask-8" maskContentUnits="userSpaceOnUse" maskUnits="objectBoundingBox" x="0" y="0" width="34" height="26" fill="white">
            <use xlink:href="#path-7"></use>
        </mask>
        <rect id="path-9" x="0" y="0" width="28" height="20" rx="2"></rect>
    </defs>
    <g id="Contact" stroke="none" stroke-width="1" fill="none" fill-rule="evenodd">
        <g id="Kontakt-HD" transform="translate(-1357.000000, -32.000000)">
            <g id="Header---white-background-HD" transform="translate(0.000000, 1.000000)">
                <g id="Header---white-background" transform="translate(370.000000, 28.000000)">
                    <g id="Group-2-Copy">
                        <g id="Menu" transform="translate(321.000000, 54.000000)" fill="#4A4A4A">
                            <text font-family="FuturaBT-Medium, Futura Md BT" font-size="16" font-weight="400">
                                <tspan x="15.2421875" y="15">     Home      Products &amp; References         Services and Installation         Materials         About us      FAQ      Contact   </tspan>
                            </text>
                            <polygon id="Arrow-down" transform="translate(283.942065, 11.041053) rotate(90.000000) translate(-283.942065, -11.041053) " points="282.04247 6.04105263 280.886195 7.2077193 284.685385 11.0410526 280.886195 14.874386 282.04247 16.0410526 286.997936 11.0410526"></polygon>
                            <polygon id="Arrow-down-2" transform="translate(502.942065, 11.041053) rotate(90.000000) translate(-502.942065, -11.041053) " points="501.04247 6.04105263 499.886195 7.2077193 503.685385 11.0410526 499.886195 14.874386 501.04247 16.0410526 505.997936 11.0410526"></polygon>
                            <polygon id="Arrow-down-3" transform="translate(614.942065, 11.041053) rotate(90.000000) translate(-614.942065, -11.041053) " points="613.04247 6.04105263 611.886195 7.2077193 615.685385 11.0410526 611.886195 14.874386 613.04247 16.0410526 617.997936 11.0410526"></polygon>
                        </g>
                        <g id="Social-icons" transform="translate(875.000000, 3.000000)" fill="#4A4A4A">
                            <text id="Facebook" font-family="FuturaBT-Book, Futura Bk BT" font-size="14" font-weight="300">
                                <tspan x="28.8623047" y="15">Facebook</tspan>
                            </text>
                            <path d="M18.8954752,0.000393442623 L1.10386617,0.000393442623 C0.494632154,0.000393442623 0,0.49403765 0,1.10425961 L0,18.8958686 C0,19.5060906 0.494632154,20.0003934 1.10386617,20.0003934 L10.6823421,20.0003934 L10.6823421,12.2552179 L8.07613779,12.2552179 L8.07613779,9.23638106 L10.6823421,9.23638106 L10.6823421,7.01020705 C10.6823421,4.42738416 12.2594349,3.02021825 14.563986,3.02021825 C15.6688402,3.02021825 16.6162814,3.10287648 16.8925772,3.13877189 L16.8925772,5.83850185 L15.2940789,5.83916048 C14.0410327,5.83916048 13.799315,6.43489255 13.799315,7.30856706 L13.799315,9.23539311 L16.7888428,9.23539311 L16.3979451,12.2539007 L13.7989857,12.2539007 L13.7989857,19.9994055 L18.8951459,19.9994055 C19.5050385,19.9994055 20,19.504444 20,18.8958686 L20,1.10360098 C19.9996707,0.49403765 19.5053678,0.000393442623 18.8954752,0.000393442623 Z" id="Icon-Facebook"></path>
                            <text id="Instagram" font-family="FuturaBT-Book, Futura Bk BT" font-size="14" font-weight="300">
                                <tspan x="141.544922" y="15">Instagram</tspan>
                            </text>
                            <path d="M130,0 L114,0 C112.9,0 112,0.9 112,2 L112,18 C112,19.1 112.9,20 114,20 L130,20 C131.1,20 132,19.1 132,18 L132,2 C132,0.9 131.1,0 130,0 Z M122,6 C124.2,6 126,7.8 126,10 C126,12.2 124.2,14 122,14 C119.8,14 118,12.2 118,10 C118,7.8 119.8,6 122,6 Z M114.5,18 C114.2,18 114,17.8 114,17.5 L114,9 L116.1,9 C116,9.3 116,9.7 116,10 C116,13.3 118.7,16 122,16 C125.3,16 128,13.3 128,10 C128,9.7 128,9.3 127.9,9 L130,9 L130,17.5 C130,17.8 129.8,18 129.5,18 L114.5,18 Z M130,4.5 C130,4.8 129.8,5 129.5,5 L127.5,5 C127.2,5 127,4.8 127,4.5 L127,2.5 C127,2.2 127.2,2 127.5,2 L129.5,2 C129.8,2 130,2.2 130,2.5 L130,4.5 Z" id="Icon-Instagram"></path>
                        </g>
                        <g id="Logo-color">
                            <path d="M98.228321,48.6072878 L97.9109779,61.2318266 L97.6748155,48.5113469 L98.228321,48.6072878 Z M97.87131,74.4006458 L93.023524,75.2604244 L92.9063653,74.6700185 L97.87131,74.4006458 Z M93.222786,61.9541513 L91.3547048,49.5104244 L92.1517528,49.1940037 L93.222786,61.9541513 Z M85.7117159,66.8914207 L85.2357011,64.4449262 L86.0318266,57.2927122 L85.7117159,66.8914207 Z M86.1886531,48.1967712 L93.820572,66.7991697 L92.826107,49.1017528 L96.8399446,48.6072878 L97.7117159,73.8591328 L92.7458487,74.1303506 L85.673893,54.7595018 L84.7984317,64.5316421 L85.9100554,74.8517528 L81.3030443,74.7189114 L81.6600554,64.4449262 L80.9072878,48.6072878 L86.1886531,48.1967712 Z M81.1858856,65.122048 L80.8666974,74.5334871 L80.1508303,74.7631919 L81.1858856,65.122048 Z" id="Fill-1" fill="#C5B49F"></path>
                            <path d="M117.461347,74.4911439 L117.620018,75.1239852 L113.251015,74.7190037 L117.461347,74.4911439 Z M109.356181,63.2217712 L108.960424,56.1627306 L109.913376,63.7660517 L109.356181,63.2217712 Z M105.739022,65.7559041 L111.30452,65.0778598 L110.505627,64.1728782 L109.275923,54.9883764 L107.848801,55.5769373 L105.739022,65.7559041 Z M111.700277,70.1904059 L105.421679,71.8656827 L105.302675,70.7337638 L111.700277,70.1904059 Z M102.48072,62.3601476 L104.705812,48.0649446 L105.421679,48.4690037 L102.48072,62.3601476 Z M107.407841,48.7854244 L111.063745,48.1073801 L117.262085,74.0409594 L113.290683,74.2623616 L112.73072,69.5123616 L105.026845,70.2808118 L104.74917,68.9680812 L103.275923,74.7623616 L99.025,74.3555351 L102.720572,63.2217712 L105.899539,48.3822878 L107.407841,48.7854244 Z" id="Fill-2" fill="#C5B49F"></path>
                            <path d="M131.248524,53.5842251 L130.8131,54.670941 L126.598155,53.2207565 L131.248524,53.5842251 Z M127.35369,73.4052583 L126.64059,73.7678044 L125.964391,62.8619004 L127.35369,73.4052583 Z M121.472694,62.7733395 L120.082472,55.7106089 L120.916421,55.075 L121.472694,62.7733395 Z M116.031734,46.7050738 L123.858303,48.1967712 L115.991144,47.7493542 L116.031734,46.7050738 Z M124.334317,48.6986162 L131.885055,48.0187269 L131.447786,52.9504613 L125.924723,52.725369 L125.487454,62.8619004 L126.201476,74.0408672 L121.434871,74.0408672 L122.188561,63.221679 L121.39428,54.4421587 L123.260517,53.1321956 L115.553875,52.9504613 L115.911808,48.3821956 L124.334317,48.6986162 Z" id="Fill-3" fill="#C5B49F"></path>
                            <path d="M149.923985,70.9145756 L148.971956,71.504059 L150.799446,67.2946494 L149.923985,70.9145756 Z M145.87048,46.8389299 L150.442435,47.6553506 L145.87048,47.7900369 L145.87048,46.8389299 Z M145.554059,67.5243542 L143.647232,70.1009225 L142.889852,69.9662362 L145.554059,67.5243542 Z M139.514391,67.2946494 L138.837269,66.4809963 L139.316052,48.9680812 L139.514391,67.2946494 Z M138.004244,73.902583 L135.340959,71.0077491 L135.14262,69.9662362 L138.004244,73.902583 Z M138.758856,48.3822878 L138.321587,66.750369 L140.705351,70.1009225 L143.803137,70.5972325 L146.110332,67.7005535 L145.87048,48.5114391 L150.561439,48.4238007 L150.561439,66.5750923 L148.535609,71.59631 L143.927675,74.6239852 L138.519926,73.8149446 L135.062362,69.0142066 L134.864945,63.7245387 L134.19059,48.1073801 L138.758856,48.3822878 Z" id="Fill-4" fill="#C5B49F"></path>
                            <path d="M169.830904,52.6356089 L169.754336,58.0175277 L169.075369,52.0433579 L169.830904,52.6356089 Z M167.210055,64.8505535 L166.374262,64.1282288 L169.553229,59.9667897 L167.210055,64.8505535 Z M164.628875,58.0664207 L163.674077,58.9677122 L164.628875,54.398524 L164.628875,58.0664207 Z M161.250646,65.2140221 L159.89548,66.4815498 L159.260793,65.3948339 L161.250646,65.2140221 Z M159.500646,54.398524 L158.865037,59.601476 L158.665775,54.0387454 L159.500646,54.398524 Z M158.072601,53.7638376 L158.268173,60.4160517 L163.158395,60.3293358 L165.18238,58.3828413 L165.103044,54.2610701 L163.116882,52.6356089 L156.759871,53.0424354 L158.072601,53.7638376 Z M158.268173,48.6983395 L164.663007,48.8293358 L168.518173,51.9086716 L169.352122,59.2841328 L166.056919,63.7656827 L164.663007,62.6328413 L167.210055,69.5119926 L170.069834,74.1309963 L165.539391,74.7629151 L164.031089,70.4197417 L161.567989,64.6734317 L158.865037,64.6734317 L157.992343,63.3099631 L158.108579,74.0405904 L153.66024,74.5341328 L154.453598,61.7297048 L153.937915,49.101476 L158.268173,48.6983395 Z M158.190683,74.5793358 L158.351199,75.3976015 L153.541236,74.9464945 L158.190683,74.5793358 Z M154.017251,61.0055351 L152.586439,49.146679 L153.183303,49.0581181 L154.017251,61.0055351 Z" id="Fill-5" fill="#C5B49F"></path>
                            <path d="M186.123432,56.8873616 L185.487823,56.2083948 L186.281181,51.1853321 L186.123432,56.8873616 Z M186.878044,69.9657749 L187.033026,71.0082103 L184.809779,73.4510148 L186.878044,69.9657749 Z M177.379889,53.6751845 L178.255351,53.3587638 L177.697232,56.0248155 L177.379889,53.6751845 Z M179.963838,63.6299815 L180.676937,64.8504613 L174.797786,61.9122694 L179.963838,63.6299815 Z M174.279336,67.1133764 L177.379889,69.1087638 L173.843911,68.0654059 L174.279336,67.1133764 Z M185.128044,55.6631919 L183.340221,53.6262915 L178.891882,52.5423432 L176.865129,53.5368081 L177.143727,56.2969557 L182.822694,60.3292435 L186.362362,63.8550738 L186.798708,69.2868081 L184.057011,73.4510148 L178.095756,74.5340406 L172.455535,72.9085793 L173.687085,68.473155 L177.501661,69.873524 L181.314391,70.2812731 L182.982288,67.1604244 L180.241513,63.1309041 L174.360517,61.0949262 L172.455535,55.4842251 L175.19262,49.1945572 L181.035793,47.8799815 L185.885424,50.7296125 L185.128044,55.6631919 Z M173.648339,49.871679 L174.597601,49.5561808 L172.057011,54.7600554 L173.648339,49.871679 Z" id="Fill-6" fill="#C5B49F"></path>
                            <path d="M204.99345,53.5842251 L204.560793,54.670941 L200.349539,53.2207565 L204.99345,53.5842251 Z M201.102306,73.4052583 L200.386439,73.7678044 L199.711162,62.8619004 L201.102306,73.4052583 Z M195.222232,62.7733395 L193.831089,55.7106089 L194.667804,55.075 L195.222232,62.7733395 Z M189.777583,46.7050738 L197.605074,48.1967712 L189.736993,47.7493542 L189.777583,46.7050738 Z M198.079244,48.6986162 L205.629982,48.0187269 L205.19548,52.9504613 L199.671494,52.725369 L199.235148,62.8619004 L199.951015,74.0408672 L195.185332,74.0408672 L195.937177,63.221679 L195.141052,54.4421587 L197.00821,53.1321956 L189.302491,52.9504613 L189.659502,48.3821956 L198.079244,48.6986162 Z" id="Fill-7" fill="#C5B49F"></path>
                            <path d="M218.704982,58.6526753 L218.629336,61.7292435 L217.947601,58.6102399 L218.704982,58.6526753 Z M219.77786,53.8519373 L213.937454,54.5355166 L213.421771,53.8519373 L219.77786,53.8519373 Z M213.06107,63.6305351 L213.937454,67.927583 L213.06107,68.6499077 L213.06107,63.6305351 Z M220.691144,48.6074723 L221.207749,53.220941 L213.06107,53.3583948 L212.426384,52.4506458 L211.831365,58.7892066 L217.392251,58.6102399 L218.264022,63.2218635 L212.347048,62.8159594 L212.625646,69.0142989 L211.477122,69.920203 L215.286162,70.1010148 L221.007565,69.873155 L221.207749,74.1305351 L214.730812,73.8583948 L208.374723,74.623155 L208.972509,61.8187269 L208.331365,48.5115314 L220.691144,48.6074723 Z M207.855351,73.9893911 L207.578598,63.0392066 L208.331365,61.9119004 L207.855351,73.9893911 Z" id="Fill-8" fill="#C5B49F"></path>
                            <path d="M230.068727,49.2388376 L228.956181,59.5571033 L229.195111,49.1945572 L230.068727,49.2388376 Z M229.472786,73.672417 L229.670203,74.2628229 L225.777214,74.2176199 L229.472786,73.672417 Z M228.713561,49.1023063 L228.280904,60.1908672 L229.434963,73.2240775 L224.027214,74.2628229 L224.703413,61.9999077 L223.988469,48.7858856 L228.713561,49.1023063 Z M223.63238,73.8144834 L223.116697,73.4058118 L224.228321,62.4556273 L223.63238,73.8144834 Z" id="Fill-9" fill="#C5B49F"></path>
                            <path d="M249.2631,48.6072878 L248.941144,61.2318266 L248.706827,48.5113469 L249.2631,48.6072878 Z M248.903321,74.4006458 L244.055535,75.2604244 L243.937454,74.6700185 L248.903321,74.4006458 Z M244.254797,61.9541513 L242.385793,49.5104244 L243.182841,49.1940037 L244.254797,61.9541513 Z M236.743727,66.8914207 L236.26679,64.4449262 L237.062915,57.2927122 L236.743727,66.8914207 Z M237.220664,48.1967712 L244.854428,66.7991697 L243.858118,49.1017528 L247.872878,48.6072878 L248.746494,73.8591328 L243.776937,74.1303506 L236.704059,54.7595018 L235.830443,64.5316421 L236.942989,74.8517528 L232.331365,74.7189114 L232.692989,64.4449262 L231.938376,48.6072878 L237.220664,48.1967712 Z M232.216052,65.122048 L231.898708,74.5334871 L231.178229,74.7631919 L232.216052,65.122048 Z" id="Fill-10" fill="#C5B49F"></path>
                            <g id="Group-53" transform="translate(0.000000, 0.821033)">
                                <path d="M45.4443727,59.3396679 C45.1491697,59.2031365 44.6657749,59.1016605 41.0836716,59.1016605 C40.17869,59.1016605 39.1833026,59.1099631 38.1602399,59.1201107 C37.0855166,59.1201107 35.9840406,59.1284133 34.9277675,59.1284133 C33.6630074,59.1284133 29.8059963,59.1284133 29.0596863,58.895941 C28.1740775,58.6219557 26.7681734,58.9291513 25.2663284,59.2907749 C23.6270295,59.6846863 21.821679,60.0066421 21.3908672,59.5527675 C20.8964022,59.0260148 19.7451107,58.4881919 14.9831181,58.4881919 C11.9821956,58.4881919 8.60950185,58.7077491 6.80046125,58.8221402 L5.80046125,58.8867159 C3.46005535,59.0121771 2.21743542,59.7787823 2.16854244,59.8110701 L1.83643911,60.0177122 L1.50710332,71.3110701 L8.00249077,72.9263838 L8.1648524,72.8913284 C8.20175277,72.8839483 11.8115314,72.1201107 13.7635609,72.1201107 C14.1694649,72.1201107 14.3816421,72.1551661 14.4840406,72.1782288 C14.8862546,72.8913284 16.0043358,72.9937269 17.0615314,72.9937269 C18.272786,72.9937269 19.7349631,72.8267528 20.6104244,72.7271218 C20.9148524,72.6929889 21.1556273,72.6634686 21.2921587,72.653321 C21.7368081,72.6173432 24.5919742,72.7354244 27.2829336,72.8313653 C29.8124539,72.9236162 32.1971402,73.0140221 33.0919742,73.0140221 C33.2414207,73.0140221 33.3521218,73.0112546 33.4840406,73.0038745 C34.3087638,73.0038745 37.0855166,73.5546125 38.0882841,73.7640221 L38.1952952,73.7880074 L49.3041513,72.747417 L49.6039668,62.3267528 L49.3189114,62.1016605 C49.0218635,61.8645756 46.3890221,59.7797048 45.4443727,59.3396679" id="Fill-11" fill="#C5B49F"></path>
                                <path d="M72.6232472,61.8523063 L69.4092251,59.8652214 L69.1915129,59.8726015 C68.7108856,59.8855166 57.3446494,60.2019373 54.9728782,60.4962177 C52.7201107,60.775738 52.2330258,61.3559963 52.001476,62.5441882 L51.9479705,62.7978782 C51.7321033,63.7296125 51.6444649,71.8366236 51.6250923,73.4547048 L51.6177122,74.2489852 L52.4110701,74.1871771 C52.4193727,74.1871771 53.5208487,74.1069188 54.6241697,74.1069188 C55.9857934,74.1069188 56.347417,74.2296125 56.4110701,74.2572878 C57.3446494,74.6585793 67.2994465,74.7314576 71.5402214,74.7452952 L71.7653137,74.7452952 L71.9516605,74.6179889 C74.2523985,73.0469557 72.8031365,68.2397601 72.4664207,67.2333026 L72.6232472,61.8523063 Z" id="Fill-13" fill="#C5B49F"></path>
                                <path d="M65.9467712,47.5119004 C64.8904982,47.3689114 63.3314576,47.6161439 61.8360701,47.8596863 C60.7521218,48.0368081 59.6321956,48.2240775 58.825,48.2240775 C58.0888376,48.2240775 57.9467712,48.074631 57.9467712,48.074631 C57.6635609,47.7619004 57.0823801,47.1179889 51.8397601,47.1179889 C48.8397601,47.1179889 45.5011993,47.3375461 44.2438192,47.4943727 C42.9098708,47.6641144 38.8637454,47.4427122 35.4523063,47.2637454 C32.8665129,47.1262915 30.7428967,47.0211255 30.1100554,47.0792435 C28.0879151,47.2766605 25.7982472,47.6465867 24.1460332,48.8670664 C22.2050738,50.3024908 23.4052583,55.7858856 23.6617159,56.8707565 L23.7853321,57.3799815 L24.3037823,57.422417 C24.4726015,57.4344096 28.3812731,57.7563653 30.6552583,57.7563653 C31.7585793,57.7563653 32.1146679,57.679797 32.3203875,57.6069188 C32.7945572,57.4270295 37.0334871,56.5561808 40.7825646,56.5561808 C42.6940037,56.5561808 44.1607934,56.7914207 45.0178044,57.2351476 C46.2530443,57.8689114 48.2687269,58.1871771 51.0159594,58.1871771 C54.4652214,58.1871771 57.8480627,57.6936347 57.8665129,57.6825646 L71.524262,58.074631 C73.5196494,58.074631 73.7502768,54.6447417 73.8083948,51.4325646 C73.8471402,49.525738 71.274262,48.2452952 65.9467712,47.5119004" id="Fill-15" fill="#C5B49F"></path>
                                <path d="M2.60627306,56.9667897 C2.65239852,56.9806273 2.78247232,57.0793358 2.87749077,57.1457565 C3.30645756,57.4584871 3.95221402,57.9271218 5.19944649,57.9271218 C5.55369004,57.9271218 5.9402214,57.8856089 6.35442804,57.8081181 C8.63302583,57.3865314 10.7935424,57.1319188 12.1311808,57.1319188 C12.8802583,57.1319188 13.2225092,57.2075646 13.3627306,57.2546125 C14.2381919,57.548893 16.7630996,57.9068266 18.5841328,57.9068266 C19.7640221,57.9068266 20.8876384,57.7878229 21.0924354,56.9483395 C21.7464945,54.449262 23.0370849,48.5295203 20.9273063,47.6088561 C20.6809963,47.5 20.4217712,47.3763838 20.1487085,47.248155 C18.7612546,46.5931734 17.0426199,45.7795203 14.9651292,45.7795203 C14.3627306,45.7795203 13.7612546,45.8505535 13.1662362,45.9926199 C12.4771218,46.150369 11.5444649,46.2352399 10.3931734,46.2352399 C7.54446494,46.2352399 4.34612546,45.7214022 4.31476015,45.7158672 L3.65147601,45.6079336 L3.49741697,46.2629151 C3.39501845,46.6817343 3.0001845,47.8939114 2.3701107,48.4907749 C1.2095941,49.6042435 1.29261993,54.947417 1.74649446,56.1946494 C1.97804428,56.8404059 2.39594096,56.9612546 2.60627306,56.9667897" id="Fill-17" fill="#C5B49F"></path>
                                <path d="M3.36928044,44.0178044 L3.92924354,44.2890221 C4.4052583,44.520572 5.37758303,44.7890221 8.71337638,44.7890221 C10.0703875,44.7890221 11.4938192,44.7493542 12.6515683,44.7133764 C13.4320111,44.6884686 14.0943727,44.6681734 14.527952,44.6681734 L14.7668819,44.670941 C15.1773985,44.6810886 16.229059,44.7936347 17.4403137,44.9237085 C19.8904982,45.178321 23.2447417,45.5362546 25.4237085,45.5362546 C26.3941882,45.5362546 27.0408672,45.4679889 27.4504613,45.3139299 C27.6054428,45.2576568 28.0150369,45.1654059 28.9836716,45.1654059 C31.5722325,45.1654059 35.7059963,45.8305351 35.7502768,45.8388376 L35.8517528,45.8563653 L39.6432657,45.3582103 L39.7991697,45.221679 C40.0583948,45.0011993 42.3102399,43.026107 42.3683579,40.9458487 C42.4071033,39.5980627 42.4071033,39.5980627 43.4679889,38.7106089 L43.7687269,38.4587638 C44.6635609,37.7050738 45.1773985,36.6967712 45.2161439,35.623893 C45.2567343,34.5519373 44.8019373,33.4993542 43.9403137,32.6598708 C43.625738,32.3526753 43.522417,32.1543358 43.4237085,31.9642989 C42.9135609,30.9578413 42.6303506,30.9430812 37.8665129,30.6672509 C34.7023063,30.4799815 32.4523063,30.4624539 30.2788745,30.4421587 C28.120203,30.420941 25.8840406,30.4015683 22.7585793,30.2207565 C20.7530443,30.1045203 19.1358856,29.9679889 17.7982472,29.8591328 C14.7262915,29.6026753 13.1469557,29.5048893 11.825,29.8803506 C11.1008303,30.0833026 10.5196494,29.9486162 9.81208487,29.7438192 C9.07130996,29.5233395 8.19769373,29.2659594 6.90987085,29.4172509 C6.2945572,29.4928967 5.77702952,29.4587638 5.33699262,29.4301661 C5.11190037,29.420941 4.90710332,29.4052583 4.71706642,29.4052583 C3.34345018,29.4052583 2.70784133,30.1063653 2.4449262,31.9006458 C2.31023985,32.8323801 2.0353321,33.9421587 1.74197417,35.1192804 C1.20046125,37.2899446 0.639575646,39.5371771 0.941236162,40.9873616 C1.3554428,42.9892066 2.05931734,43.4034133 3.36928044,44.0178044" id="Fill-19" fill="#C5B49F"></path>
                                <path d="M74.579059,27.0946494 C74.1362546,25.6629151 73.5292435,23.7062731 71.321679,23.6426199 C70.5375461,23.6186347 70.026476,23.5614391 69.5255535,23.5097786 C68.5550738,23.4 67.5809041,23.2920664 64.7857011,23.4571956 C62.2875461,23.599262 60.9120849,23.1370849 59.729428,22.7367159 C59.0375461,22.5051661 58.3862546,22.2846863 57.6593173,22.2523985 L56.8825646,22.2173432 C55.5596863,22.151845 53.3410517,22.0420664 51.3401292,22.0420664 C47.5947417,22.0420664 46.9831181,22.4285978 46.673155,22.8243542 C45.9019373,23.8178967 44.4093173,27.3298893 47.229428,38.5356089 C47.4406827,39.3704797 47.3991697,40.3252768 47.3539668,41.247786 C47.2912362,42.695203 47.225738,44.197048 48.1971402,45.2145756 C48.8880996,45.9350554 49.9868081,46.2883764 51.6344096,46.2883764 C51.8576568,46.2846863 52.3059963,46.2736162 52.9166974,46.2597786 C54.4545203,46.2256458 57.0292435,46.1619926 59.5818266,46.1619926 C65.5163284,46.1619926 66.6178044,46.497786 66.8152214,46.6066421 L67.1141144,46.8252768 L67.477583,46.6998155 C68.7174354,46.2625461 72.7737085,44.6887454 72.827214,42.7136531 C72.8419742,42.2173432 73.2506458,40.4719557 73.67869,38.6195572 C75.120572,32.4276753 75.6639299,29.4876384 75.0855166,28.4562731 C74.8890221,28.1057196 74.7395756,27.6103321 74.579059,27.0946494" id="Fill-21" fill="#C5B49F"></path>
                                <path d="M34.1653137,9.71918819 C34.2418819,10.6739852 34.30369,11.4922509 34.7178967,12.4 C34.9383764,12.8741697 35.1422509,13.6398524 35.3599631,14.4553506 C35.8147601,16.1380074 36.2428044,17.7330258 37.1228782,18.3621771 C37.9365314,18.9479705 40.6376384,20.3760148 41.9512915,20.3760148 C42.2271218,20.3760148 42.4623616,20.3178967 42.6487085,20.2053506 C42.8083026,20.1841328 43.2594096,20.1453875 44.5195572,20.1453875 C51.0177122,20.1453875 70.0343173,21.0771218 70.2271218,21.0854244 L70.4263838,21.0909594 C71.702214,21.0909594 72.80369,20.5226937 73.696679,19.4009225 C76.696679,15.6333948 76.4392989,6.50608856 76.0287823,4.58634686 C75.5647601,2.45350554 72.9946494,2.41476015 69.7354244,2.3603321 C68.1874539,2.33542435 66.4383764,2.3095941 64.6173432,2.07435424 C60.7077491,1.57527675 58.6284133,1.68874539 55.4678967,1.97564576 C54.5075646,2.06236162 53.4208487,2.16107011 52.0924354,2.25239852 C49.1505535,2.45350554 47.9005535,2.80682657 47.0693727,3.04575646 C46.352583,3.24870849 46.0758303,3.30774908 45.2464945,3.14261993 C44.6440959,3.02546125 43.9697417,2.87416974 43.2769373,2.71642066 C41.4328413,2.3095941 39.5269373,1.88247232 38.0583026,1.83726937 C36.651476,1.83726937 35.2142066,2.50885609 34.401476,3.54760148 C33.6920664,4.45627306 33.4669742,5.57804428 33.7538745,6.80129151 C34.0380074,8.01531365 34.1071956,8.92306273 34.1653137,9.71918819" id="Fill-23" fill="#C5B49F"></path>
                                <path d="M3.27020295,22.6550738 C3.57739852,24.4419742 3.76097786,25.5185424 5.90027675,26.7510148 C8.375369,28.1744465 12.0903137,28.2860701 15.0755535,28.3663284 C15.6687269,28.3838561 16.5773985,28.4318266 17.6696494,28.4908672 C20.0866236,28.6126384 23.3919742,28.7860701 26.0967712,28.7860701 C29.373524,28.7860701 30.3569188,28.5296125 30.8135609,28.3368081 C31.8919742,27.8866236 31.8762915,26.2030443 31.8495387,23.6569188 C31.8347786,22.3035978 31.820941,20.7620849 32.0017528,19.4465867 C32.3624539,16.7934502 32.3366236,16.1642989 32.2646679,14.4991697 C32.2416052,14.0157749 32.2166974,13.4419742 32.1964022,12.6965867 C32.1687269,11.6569188 32.2674354,10.4392066 32.3606089,9.26208487 C32.5912362,6.39031365 32.772048,4.1154059 31.3836716,3.52038745 L30.7803506,3.2547048 C29.0063653,2.47426199 25.3190959,0.841420664 23.0598708,0.650461255 L22.2083948,0.57204797 C20.5654059,0.428136531 18.7074723,0.260239852 16.4214945,0.260239852 C15.3689114,0.260239852 14.3421587,0.294372694 13.2831181,0.367250923 C11.6917897,0.47795203 10.373524,0.396771218 9.28404059,0.3349631 C8.70193727,0.29898524 8.1853321,0.266697417 7.72315498,0.266697417 C6.824631,0.266697417 5.80618081,0.368173432 5.02020295,1.10894834 C3.28127306,2.75009225 2.43809963,18.6458487 2.97961255,21.122786 C3.11245387,21.7141144 3.19732472,22.2150369 3.27020295,22.6550738" id="Fill-25" fill="#C5B49F"></path>
                                <path d="M87.2374539,27.7234317 C87.7134686,27.752952 88.1765683,27.752952 88.652583,27.7778598 C90.2568266,27.8904059 91.8057196,27.9715867 93.2872694,28.0241697 L94.7642066,23.5647601 C95.5990775,20.9863469 96.3232472,18.548155 96.9348708,16.251107 C97.547417,13.9549815 98.0483395,11.6856089 98.4385609,9.44575646 C99.2457565,14.0389299 100.288192,18.3590406 101.568635,22.4051661 L103.333395,27.8719557 C106.016052,27.7870849 108.671033,27.6505535 111.299262,27.4651292 L101.944096,2.19114391 L95.1821033,2.19114391 L85.6313653,27.6127306 C86.152583,27.6570111 86.6839483,27.6948339 87.2374539,27.7234317" id="Fill-27" fill="#213F9A"></path>
                                <path d="M105.166052,33.5229705 L107.162362,39.5229705 L115.761993,39.5229705 L113.634686,33.775738 C110.820111,33.7674354 107.995387,33.6844096 105.166052,33.5229705" id="Fill-29" fill="#213F9A"></path>
                                <path d="M84.42131,30.8320111 L81.1565498,39.5229705 L89.5043358,39.5229705 L91.9683579,32.2452952 L92.4821956,32.2452952 C89.7967712,31.8550738 87.1095018,31.3855166 84.42131,30.8320111" id="Fill-31" fill="#213F9A"></path>
                                <path d="M228.175092,24.2577491 L228.404797,23.5649446 C229.239668,20.9865314 229.961993,18.5483395 230.576384,16.2512915 C231.188007,13.9551661 231.688007,11.6857934 232.077306,9.44501845 C232.884502,14.0381919 233.928782,18.3592251 235.208303,22.4053506 L236.97583,27.6784133 C239.451845,28.5852399 244.18155,31.2494465 246.778413,32.9302583 L235.584686,2.19132841 L228.821771,2.19132841 L221.451845,21.8094096 C221.973985,21.851845 226.658487,23.5206642 228.175092,24.2577491" id="Fill-33" fill="#213F9A"></path>
                                <path d="M238.369557,32.1211255 L240.802214,39.522417 L249.401845,39.522417 L247.891697,35.9836716 C245.408303,34.7502768 241.577122,33.2013838 238.369557,32.1211255" id="Fill-35" fill="#213F9A"></path>
                                <path d="M219.723893,26.879797 L214.795849,39.522786 L223.14548,39.522786 L226.599354,29.1823801 C226.599354,29.1823801 222.413007,27.4342251 219.723893,26.879797" id="Fill-37" fill="#213F9A"></path>
                                <path d="M199.926845,24.7199262 L199.926845,39.5225092 L208.609502,39.5225092 L208.609502,25.4035055 C205.698985,25.0603321 202.804151,24.8352399 199.926845,24.7199262" id="Fill-39" fill="#213F9A"></path>
                                <path d="M208.609594,18.8461255 L208.609594,2.19114391 L199.926937,2.19114391 L199.926937,17.6671587 C202.830074,17.9457565 205.72583,18.3378229 208.609594,18.8461255" id="Fill-41" fill="#213F9A"></path>
                                <path d="M168.310148,18.5632841 C169.370111,18.4064576 170.434686,18.2634686 171.496494,18.1324723 L171.496494,6.32619926 L172.958672,6.32619926 C174.321218,6.32619926 175.496494,6.44704797 176.484502,6.68874539 C177.472509,6.9304428 178.280627,7.3095941 178.905166,7.82527675 C179.53155,8.34188192 179.990959,9.0097786 180.283395,9.83173432 C180.57583,10.6546125 180.722509,11.6453875 180.722509,12.8059041 C180.722509,14.9498155 180.026015,16.4738007 178.634871,17.3760148 C178.595203,17.4009225 178.55369,17.4249077 178.5131,17.448893 C181.616421,17.2293358 184.725277,17.1214022 187.831365,17.1297048 C188.739114,15.698893 189.195756,13.9618081 189.195756,11.9119926 C189.195756,8.4304428 187.734502,5.84188192 184.812915,4.15 C182.502952,2.84464945 178.981734,2.19151292 174.251107,2.19151292 L162.813838,2.19151292 L162.813838,19.4479705 C164.629336,19.1333948 166.456827,18.8345018 168.310148,18.5632841" id="Fill-43" fill="#213F9A"></path>
                                <path d="M174.645203,26.1140221 L183.310332,39.5226937 L192.117528,39.5226937 L182.734686,25.1490775 C180.026199,25.3926199 177.330627,25.7173432 174.645203,26.1140221" id="Fill-45" fill="#213F9A"></path>
                                <path d="M169.589483,26.9428967 C167.324723,27.3506458 165.070111,27.7703875 162.813653,28.1919742 L162.813653,39.523155 L171.49631,39.523155 L171.49631,26.6126384 C170.861624,26.7187269 170.22417,26.8285055 169.589483,26.9428967" id="Fill-47" fill="#213F9A"></path>
                                <path d="M130.626015,25.321679 L130.626015,6.42315498 L131.709963,6.42315498 C136.386162,6.42315498 139.599262,7.50249077 141.353875,9.66208487 C143.107565,11.8226015 143.983026,15.7792435 143.983026,21.5347786 C143.983026,22.0089483 143.974723,22.4655904 143.959041,22.9120849 C147.006089,22.3041513 150.036531,21.6805351 153.083579,21.0744465 C153.061439,16.7248155 152.548524,13.370572 151.539299,11.0163284 C150.508856,8.5347786 148.784686,6.52001845 146.364022,4.97204797 C144.750554,3.94068266 142.912915,3.22297048 140.852952,2.81983395 C138.626937,2.40101476 135.884317,2.19160517 132.628782,2.19160517 L121.942435,2.19160517 L121.942435,26.5006458 C124.86679,26.1620849 127.760701,25.7663284 130.626015,25.321679" id="Fill-49" fill="#213F9A"></path>
                                <path d="M141.808764,31.6517528 C141.62703,31.9026753 141.435148,32.1351476 141.229428,32.3417897 C139.446218,34.1960332 135.913007,35.1222325 130.626107,35.1222325 L130.626107,32.9930812 C127.745111,33.2541513 124.849354,33.4469557 121.942528,33.5668819 L121.942528,39.5226015 L128.956365,39.5226015 C137.080904,39.5226015 142.716513,38.7089483 145.863192,37.0816421 C148.422232,35.7762915 150.258948,33.8814576 151.373339,31.3989852 C151.567066,30.9580258 151.738653,30.4866236 151.89917,30.0004613 C148.567066,30.5927122 145.210978,31.1535978 141.808764,31.6517528" id="Fill-51" fill="#213F9A"></path>
                            </g>
                        </g>
                        <g id="Lang" transform="translate(1095.000000, 0.000000)">
                            <g id="DE" transform="translate(58.000000, 3.000000)">
                                <mask id="mask-2" fill="white">
                                    <use xlink:href="#path-1"></use>
                                </mask>
                                <use id="Mask" fill="#FFFFFF" xlink:href="#path-1"></use>
                                <rect id="Rectangle-2" fill="#262626" mask="url(#mask-2)" x="0" y="0" width="28" height="6.66666667"></rect>
                                <g id="Rectangle-2" mask="url(#mask-2)">
                                    <use fill="black" fill-opacity="1" filter="url(#filter-4)" xlink:href="#path-3"></use>
                                    <use fill="#F01515" fill-rule="evenodd" xlink:href="#path-3"></use>
                                </g>
                                <g id="Rectangle-2" mask="url(#mask-2)">
                                    <use fill="black" fill-opacity="1" filter="url(#filter-6)" xlink:href="#path-5"></use>
                                    <use fill="#FFD521" fill-rule="evenodd" xlink:href="#path-5"></use>
                                </g>
                            </g>
                            <use id="Rectangle-10" stroke="#D7D7D7" mask="url(#mask-8)" stroke-width="2" xlink:href="#path-7"></use>
                            <g id="GB" transform="translate(20.000000, 3.000000)">
                                <mask id="mask-10" fill="white">
                                    <use xlink:href="#path-9"></use>
                                </mask>
                                <use id="Mask" fill="#FFFFFF" xlink:href="#path-9"></use>
                                <rect id="Mask-Copy" fill="#0A17A7" mask="url(#mask-10)" x="0" y="0" width="28" height="20"></rect>
                                <path d="M10.6666667,13.8566523 L10.6666667,21.3333333 L17.3333333,21.3333333 L17.3333333,13.8566523 L29.2824692,21.9164462 L30.7736503,19.7056794 L21.3262588,13.3333333 L28,13.3333333 L28,6.66666667 L21.3262588,6.66666667 L30.7736503,0.29432063 L29.2824692,-1.91644623 L17.3333333,6.14334768 L17.3333333,-1.33333333 L10.6666667,-1.33333333 L10.6666667,6.14334768 L-1.2824692,-1.91644623 L-2.77365027,0.29432063 L6.67374124,6.66666667 L-9.76996262e-14,6.66666667 L-9.76996262e-14,13.3333333 L6.67374124,13.3333333 L-2.77365027,19.7056794 L-1.2824692,21.9164462 L10.6666667,13.8566523 Z" id="Rectangle-2" fill="#FFFFFF" mask="url(#mask-10)"></path>
                                <path d="M18.6679688,6.33219401 L31.3333333,-2" id="Line" stroke="#DB1F35" stroke-width="0.666666667" stroke-linecap="round" mask="url(#mask-10)"></path>
                                <path d="M20.0127767,21.3503418 L31.3666178,13.6975098" id="Line-Copy-2" stroke="#DB1F35" stroke-width="0.666666667" stroke-linecap="round" mask="url(#mask-10)" transform="translate(25.689697, 17.523926) scale(1, -1) translate(-25.689697, -17.523926) "></path>
                                <path d="M8.00553385,6.31046549 L-3.83748372,-1.67097982" id="Line-Copy" stroke="#DB1F35" stroke-width="0.666666667" stroke-linecap="round" mask="url(#mask-10)"></path>
                                <path d="M9.29003906,22.3104655 L-3.83748372,13.6048991" id="Line-Copy-3" stroke="#DB1F35" stroke-width="0.666666667" stroke-linecap="round" mask="url(#mask-10)" transform="translate(2.726278, 17.957682) scale(1, -1) translate(-2.726278, -17.957682) "></path>
                                <polygon id="Rectangle-2-Copy-3" fill="#E6273E" mask="url(#mask-10)" points="0 12 12 12 12 20 16 20 16 12 28 12 28 8 16 8 16 0 12 0 12 8 0 8"></polygon>
                            </g>
                            <rect id="Rectangle-7" fill="#D7D7D7" x="0" y="0" width="1" height="26"></rect>
                        </g>
                    </g>
                </g>
            </g>
            <g id="Header---white-background-HD" transform="translate(0.000000, 1.000000)" fill="#4A4A4A">
                <g id="Header---white-background" transform="translate(370.000000, 28.000000)">
                    <g id="Group-2-Copy">
                        <g id="Social-icons" transform="translate(875.000000, 3.000000)">
                            <path d="M130,0 L114,0 C112.9,0 112,0.9 112,2 L112,18 C112,19.1 112.9,20 114,20 L130,20 C131.1,20 132,19.1 132,18 L132,2 C132,0.9 131.1,0 130,0 Z M122,6 C124.2,6 126,7.8 126,10 C126,12.2 124.2,14 122,14 C119.8,14 118,12.2 118,10 C118,7.8 119.8,6 122,6 Z M114.5,18 C114.2,18 114,17.8 114,17.5 L114,9 L116.1,9 C116,9.3 116,9.7 116,10 C116,13.3 118.7,16 122,16 C125.3,16 128,13.3 128,10 C128,9.7 128,9.3 127.9,9 L130,9 L130,17.5 C130,17.8 129.8,18 129.5,18 L114.5,18 Z M130,4.5 C130,4.8 129.8,5 129.5,5 L127.5,5 C127.2,5 127,4.8 127,4.5 L127,2.5 C127,2.2 127.2,2 127.5,2 L129.5,2 C129.8,2 130,2.2 130,2.5 L130,4.5 Z" id="Icon-Instagram"></path>
                        </g>
                    </g>
                </g>
            </g>
        </g>
    </g>
</svg>