<?xml version="1.0" encoding="UTF-8" standalone="no"?>
<svg width="60px" height="59px" viewBox="0 0 60 59" version="1.1" xmlns="http://www.w3.org/2000/svg" xmlns:xlink="http://www.w3.org/1999/xlink">
    <!-- Generator: Sketch 41.2 (35397) - http://www.bohemiancoding.com/sketch -->
    <title>Icon-measurements</title>
    <desc>Created with Sketch.</desc>
    <defs></defs>
    <g id="Symbols" stroke="none" stroke-width="1" fill="none" fill-rule="evenodd">
        <g id="Easy-order-process-HD" transform="translate(-444.000000, -236.000000)" fill="#C5B49F">
            <g id="Easy-order-process">
                <g id="Measurements" transform="translate(415.000000, 236.000000)">
                    <g id="Icon-measurements" transform="translate(29.000000, 0.000000)">
                        <g id="pencil-and-ruler-crossed">
                            <g id="Capa_1">
                                <path d="M17.9381208,27.973086 C18.2002685,28.2284781 18.5437584,28.3561088 18.8872483,28.3561088 C19.2307383,28.3561088 19.5743624,28.2284781 19.8363758,27.973086 C20.3605369,27.4624326 20.3605369,26.6344025 19.8363758,26.1236182 L17.338255,23.689874 L20.917047,20.2033074 C21.4412081,19.692654 21.4412081,18.8646239 20.917047,18.3539704 C20.3928859,17.843317 19.542953,17.843317 19.0187919,18.3539704 L15.4401342,21.8405369 L12.2966443,18.7780547 L15.8754362,15.2914882 C16.3995973,14.7808347 16.3995973,13.9528046 15.8754362,13.4420204 C15.3512752,12.9313669 14.5013423,12.9313669 13.977047,13.4420204 L10.398255,16.9285869 L3.24389262,9.95872306 L10.2609396,3.16853601 L26.8297987,19.3104158 C27.3539597,19.8210693 28.2038926,19.8210693 28.7281879,19.3104158 C29.252349,18.7997624 29.252349,17.9717322 28.7281879,17.4610788 L11.2134228,0.397668923 C10.6904698,-0.111676837 9.84295302,-0.113115297 9.31825503,0.394530464 L0.396375839,9.02764686 C0.143221477,9.2727082 0.000536912751,9.60564641 -1.99943737e-13,9.95323075 C-0.000536912752,10.3008151 0.140805369,10.6342764 0.393154362,10.8801223 L17.9381208,27.973086 Z" id="Shape"></path>
                                <path d="M59.545906,47.4846248 L42.0159732,30.406438 C41.4918121,29.8957845 40.6418792,29.8957845 40.1175839,30.406438 C39.5934228,30.9170914 39.5934228,31.7451216 40.1175839,32.2559058 L56.6983893,48.4092933 L49.7049664,55.2224957 L42.5475168,48.2493626 L46.1263087,44.7627961 C46.6504698,44.2521427 46.6504698,43.4241125 46.1263087,42.9134591 C45.6021477,42.4028056 44.7522148,42.4028056 44.2280537,42.9134591 L40.649396,46.4000256 L37.505906,43.3375434 L41.084698,39.8509768 C41.6088591,39.3403234 41.6088591,38.5122933 41.084698,38.001509 C40.5605369,37.4907248 39.710604,37.4908556 39.1863087,38.001509 L35.6075168,41.4880756 L33.1244295,39.0689774 C32.6002685,38.5584548 31.7503356,38.5584548 31.2260403,39.0689774 C30.7018792,39.5796309 30.7018792,40.407661 31.2260403,40.9184452 L48.7559732,57.996632 C49.0181208,58.2520241 49.3616107,58.3796548 49.7051007,58.3796548 C50.0485906,58.3796548 50.3922148,58.2520241 50.6542282,57.996632 L59.545906,49.3340926 C60.0699329,48.8233083 60.0699329,47.9952782 59.545906,47.4846248 Z" id="Shape"></path>
                                <path d="M8.49986577,8.1061168 C7.99275168,8.6000318 7.71355705,9.25688514 7.71355705,9.9555846 C7.71355705,10.6541533 7.99288591,11.3110066 8.49986577,11.8049216 C9.00684564,12.2989674 9.68107383,12.5709672 10.3981208,12.5709672 C11.1151678,12.5709672 11.789396,12.2988366 12.2965101,11.8049216 C13.3430872,10.785184 13.3430872,9.12598524 12.2965101,8.10624757 C11.789396,7.61233257 11.115302,7.34033278 10.3981208,7.34033278 C9.6809396,7.34033278 9.00684564,7.61207103 8.49986577,8.1061168 Z" id="Shape"></path>
                                <path d="M51.6033557,50.0988304 C52.1103356,49.6047847 52.3896644,48.9480621 52.3896644,48.2494934 C52.3896644,47.5509247 52.1103356,46.8940714 51.6033557,46.4000256 C51.0962416,45.9061106 50.4221477,45.6341108 49.7049664,45.6341108 C48.9879195,45.6341108 48.3138255,45.9061106 47.8067114,46.4000256 C47.2995973,46.8940714 47.0204027,47.5507939 47.0204027,48.2494934 C47.0204027,48.9480621 47.2995973,49.6047847 47.8065772,50.0988304 C48.3136913,50.5928762 48.9877852,50.864876 49.7048322,50.864876 C50.4221477,50.864876 51.0962416,50.5928762 51.6033557,50.0988304 Z" id="Shape"></path>
                                <path d="M54.0173154,15.0158268 C54.0175839,15.0155653 54.0177181,15.0154345 54.0179866,15.015173 C54.018255,15.0149115 54.0183893,15.0147807 54.0186577,15.0145191 L57.8636242,11.2686374 C60.4804027,8.71929325 60.4804027,4.57116569 57.8636242,2.02182151 C56.5975839,0.788537851 54.9122148,0.109322992 53.1179866,0.109322992 C51.3236242,0.109322992 49.638255,0.788537851 48.3722148,2.02195228 L44.5279195,5.76718015 C44.5275168,5.76757246 44.5269799,5.76796476 44.5265772,5.76835707 C44.5261745,5.76874938 44.5257718,5.76927246 44.5253691,5.76966476 L39.7814765,10.3913073 C39.7813423,10.3914381 39.7810738,10.3915689 39.7809396,10.3918304 C39.7808054,10.392092 39.7806711,10.3922227 39.7804027,10.3923535 L9.0147651,40.3650303 C9.01221477,40.3675149 9.01020134,40.3705226 9.00765101,40.3730072 C8.96657718,40.4138072 8.92845638,40.4570917 8.89315436,40.5025994 C8.88550336,40.5124071 8.87865772,40.5226071 8.87127517,40.5326763 C8.84053691,40.5749147 8.81208054,40.6185916 8.78657718,40.6639685 C8.78375839,40.6690685 8.77986577,40.6735147 8.77704698,40.6786147 L3.77744966,49.895746 C3.77489933,49.9003229 3.77234899,49.9048998 3.76993289,49.9096075 L0.267919463,56.3662025 C-0.00724832215,56.873456 0.0891275168,57.4961786 0.505503356,57.9019552 C0.763624161,58.1532934 1.10711409,58.2849779 1.45503356,58.2849779 C1.6685906,58.2849779 1.88375839,58.2354164 2.08174497,58.1334165 L8.70979866,54.7211269 C8.71409396,54.7190346 8.71825503,54.7168115 8.72255034,54.7145884 L18.1841611,49.8434383 C18.1867114,49.8421306 18.1889933,49.8402999 18.1915436,49.8389922 C18.2430872,49.811923 18.2926174,49.781323 18.3401342,49.7481076 C18.3484564,49.742223 18.3567785,49.7364692 18.3649664,49.7304538 C18.4115436,49.6961923 18.4558389,49.6591846 18.4977181,49.6191693 C18.5004027,49.6165539 18.5036242,49.6145924 18.5063087,49.611977 L54.0173154,15.0158268 Z M8.34053691,51.9530059 L6.61167785,50.2686995 L9.43785235,45.0585959 L10.0181208,47.6372323 C10.0195973,47.6439016 10.0224161,47.6500477 10.0240268,47.6567169 C10.0357047,47.7053631 10.0503356,47.7532246 10.0677852,47.800563 C10.0711409,47.8095861 10.0739597,47.8186091 10.0774497,47.8275014 C10.0981208,47.8799398 10.1222819,47.9312013 10.1502013,47.9812859 C10.1544966,47.9890013 10.1594631,47.9961936 10.1638926,48.0037782 C10.1877852,48.044709 10.2143624,48.0844628 10.2432215,48.1231704 C10.2515436,48.1342858 10.2595973,48.1454012 10.2681879,48.156255 C10.3026846,48.1996704 10.3393289,48.2420396 10.3801342,48.2819242 C10.4210738,48.3218087 10.4645638,48.3575087 10.5092617,48.3911164 C10.5202685,48.3993548 10.5315436,48.407201 10.5428188,48.4151779 C10.5828188,48.443424 10.6238926,48.4694471 10.6661745,48.4929855 C10.6736913,48.4971701 10.6808054,48.5017471 10.6884564,48.5058009 C10.74,48.5331316 10.7928859,48.5566701 10.8468456,48.5769393 C10.8557047,48.5802085 10.864698,48.5829547 10.873557,48.5860931 C10.9224161,48.6032239 10.9720805,48.6176085 11.0224161,48.6291162 C11.0289933,48.6306854 11.0351678,48.6333008 11.0418792,48.6347393 L13.6885906,49.1999234 L8.34053691,51.9530059 Z M14.0132886,46.5914716 L18.9475168,41.7842676 C19.4716779,41.2736142 19.4716779,40.4455841 18.9475168,39.9349306 C18.4233557,39.4242772 17.5734228,39.4242772 17.0492617,39.9349306 L12.1150336,44.7420038 L11.432349,41.7084215 L40.7300671,13.165836 L42.6283221,15.015173 L20.2865772,36.7810407 C19.7624161,37.2916942 19.7624161,38.1197243 20.2865772,38.6305085 C20.5487248,38.8859007 20.8922148,39.0135313 21.2357047,39.0135313 C21.5791946,39.0135313 21.9228188,38.8857699 22.1848322,38.6305085 L44.526443,16.8646408 L46.424698,18.7139778 L17.1271141,47.2565634 L14.0132886,46.5914716 Z M45.4757047,8.54262415 L51.1704698,14.0906352 L48.3230872,16.8646408 L42.6283221,11.3166297 L45.4757047,8.54262415 Z M50.2704698,3.87142008 C51.029396,3.13192065 52.0406711,2.72470558 53.1178523,2.72470558 C54.1950336,2.72470558 55.2063087,3.13192065 55.9651007,3.87128931 C57.5351678,5.40089582 57.5351678,7.88969389 55.9651007,9.4193004 L53.0687248,12.2410367 L47.3739597,6.69302559 L50.2704698,3.87142008 Z M5.2990604,52.688713 L5.8566443,53.231928 L4.67422819,53.8406583 L5.2990604,52.688713 Z" id="Shape"></path>
                            </g>
                        </g>
                    </g>
                </g>
            </g>
        </g>
    </g>
</svg>