<?xml version="1.0" encoding="UTF-8" standalone="no"?>
<svg width="48px" height="60px" viewBox="0 0 48 60" version="1.1" xmlns="http://www.w3.org/2000/svg" xmlns:xlink="http://www.w3.org/1999/xlink">
    <!-- Generator: Sketch 41.2 (35397) - http://www.bohemiancoding.com/sketch -->
    <title>Icon-offer</title>
    <desc>Created with Sketch.</desc>
    <defs></defs>
    <g id="Symbols" stroke="none" stroke-width="1" fill="none" fill-rule="evenodd">
        <g id="Easy-order-process-HD" transform="translate(-692.000000, -239.000000)" fill="#C5B49F" stroke="#C5B49F">
            <g id="Easy-order-process">
                <g id="Offer" transform="translate(658.000000, 239.000000)">
                    <g id="Icon-offer" transform="translate(35.000000, 1.000000)">
                        <g id="Capa_1">
                            <g id="Group">
                                <path d="M35.2833333,21.2666667 L11.1166667,21.2666667 C10.5830667,21.2666667 10.15,21.6987667 10.15,22.2333333 C10.15,22.7679 10.5830667,23.2 11.1166667,23.2 L35.2833333,23.2 C35.8169333,23.2 36.25,22.7679 36.25,22.2333333 C36.25,21.6987667 35.8169333,21.2666667 35.2833333,21.2666667 Z" id="Shape"></path>
                                <path d="M11.1166667,15.4666667 L20.7833333,15.4666667 C21.3169333,15.4666667 21.75,15.0345667 21.75,14.5 C21.75,13.9654333 21.3169333,13.5333333 20.7833333,13.5333333 L11.1166667,13.5333333 C10.5830667,13.5333333 10.15,13.9654333 10.15,14.5 C10.15,15.0345667 10.5830667,15.4666667 11.1166667,15.4666667 Z" id="Shape"></path>
                                <path d="M35.2833333,29 L11.1166667,29 C10.5830667,29 10.15,29.4321 10.15,29.9666667 C10.15,30.5012333 10.5830667,30.9333333 11.1166667,30.9333333 L35.2833333,30.9333333 C35.8169333,30.9333333 36.25,30.5012333 36.25,29.9666667 C36.25,29.4321 35.8169333,29 35.2833333,29 Z" id="Shape"></path>
                                <path d="M35.2833333,36.7333333 L11.1166667,36.7333333 C10.5830667,36.7333333 10.15,37.1654333 10.15,37.7 C10.15,38.2345667 10.5830667,38.6666667 11.1166667,38.6666667 L35.2833333,38.6666667 C35.8169333,38.6666667 36.25,38.2345667 36.25,37.7 C36.25,37.1654333 35.8169333,36.7333333 35.2833333,36.7333333 Z" id="Shape"></path>
                                <path d="M35.2833333,44.4666667 L11.1166667,44.4666667 C10.5830667,44.4666667 10.15,44.8987667 10.15,45.4333333 C10.15,45.9679 10.5830667,46.4 11.1166667,46.4 L35.2833333,46.4 C35.8169333,46.4 36.25,45.9679 36.25,45.4333333 C36.25,44.8987667 35.8169333,44.4666667 35.2833333,44.4666667 Z" id="Shape"></path>
                                <path d="M31.8168667,0 L0.483333333,0 L0.483333333,58 L45.9166667,58 L45.9166667,14.0998 L31.8168667,0 Z M32.3833333,3.3002 L42.6164667,13.5333333 L32.3833333,13.5333333 L32.3833333,3.3002 Z M2.41666667,56.0666667 L2.41666667,1.93333333 L30.45,1.93333333 L30.45,15.4666667 L43.9833333,15.4666667 L43.9833333,56.0666667 L2.41666667,56.0666667 Z" id="Shape"></path>
                            </g>
                        </g>
                    </g>
                </g>
            </g>
        </g>
    </g>
</svg>